<svg width="61" height="77" viewBox="0 0 61 77" fill="none" xmlns="http://www.w3.org/2000/svg">
<circle cx="30.5" cy="30" r="30" fill="#00C3D0"/>
<path d="M11.3515 35.6721L14.6695 25.3121H17.1055L20.4235 35.6721H18.2535L16.7695 30.2821C16.4615 29.2041 16.1675 28.0001 15.8735 26.8941H15.8175C15.5375 28.0141 15.2435 29.2041 14.9355 30.2821L13.4515 35.6721H11.3515ZM13.4095 33.0121V31.4161H18.3375V33.0121H13.4095ZM24.2403 35.8681C22.2803 35.8681 21.0203 34.3421 21.0203 31.7661C21.0203 29.2041 22.6303 27.6501 24.3103 27.6501C25.1923 27.6501 25.7383 27.9721 26.3123 28.4901L26.2283 27.2581V24.5141H28.2863V35.6721H26.6063L26.4523 34.8601H26.4103C25.8363 35.4341 25.0523 35.8681 24.2403 35.8681ZM24.7583 34.1741C25.3183 34.1741 25.7803 33.9501 26.2283 33.3761V29.9321C25.7663 29.4981 25.2623 29.3301 24.7723 29.3301C23.8903 29.3301 23.1343 30.1701 23.1343 31.7381C23.1343 33.3761 23.7363 34.1741 24.7583 34.1741ZM32.8301 35.8681C31.1361 35.8681 30.3941 34.7061 30.3941 32.7321V27.8461H32.4521V32.4801C32.4521 33.6841 32.7881 34.1041 33.5581 34.1041C34.2021 34.1041 34.6221 33.8241 35.1541 33.1241V27.8461H37.1981V35.6721H35.5181L35.3641 34.5521H35.3221C34.6361 35.3501 33.8941 35.8681 32.8301 35.8681ZM41.3381 35.8681C39.8961 35.8681 39.4061 34.9301 39.4061 33.4741V24.5141H41.4641V33.5581C41.4641 34.0481 41.6741 34.2021 41.8701 34.2021C41.9401 34.2021 41.9961 34.2021 42.1361 34.1741L42.3881 35.7001C42.1501 35.7841 41.8281 35.8681 41.3381 35.8681ZM46.6781 35.8681C44.8161 35.8681 44.1021 34.6921 44.1021 32.9421V29.4561H43.0101V27.9301L44.2281 27.8461L44.4521 25.7181H46.1601V27.8461H48.1061V29.4561H46.1601V32.9421C46.1601 33.8381 46.5381 34.2581 47.2241 34.2581C47.4901 34.2581 47.7841 34.1601 48.0081 34.0761L48.3441 35.5741C47.9241 35.7141 47.3781 35.8681 46.6781 35.8681Z" fill="white"/>
<path d="M39.0348 52.006L38.4281 52.8019L39.2245 53.408L40.1515 54.1134L40.9474 54.719L41.5529 53.9231L41.9763 53.3667L42.5822 52.5704L41.7856 51.965L40.8586 51.2605L40.0635 50.6562L39.4582 51.4505L39.0348 52.006Z" fill="white" stroke="#00C3D0" stroke-width="2"/>
<path d="M43.066 48.0991L42.0996 47.3647L41.5637 48.4537L39.9877 51.656L39.7596 52.1195L39.3727 52.4651L36.7263 54.8295L35.8221 55.6374L36.7873 56.3713L38.9282 57.9991L38.9285 57.9993C39.8038 58.6643 41.0524 58.494 41.7177 57.6193L41.7178 57.619L45.5922 52.5212C45.5925 52.5209 45.5928 52.5205 45.593 52.5202C45.5931 52.5202 45.5931 52.5201 45.5931 52.5201C46.2593 51.6448 46.0889 50.3959 45.2134 49.7311C45.2133 49.7311 45.2133 49.7311 45.2132 49.731C45.2131 49.7309 45.2129 49.7308 45.2127 49.7306L43.066 48.0991ZM41.1655 52.8108L41.1653 52.8106L41.1655 52.8108ZM40.8008 53.2903L40.8009 53.2904L40.8008 53.2903Z" fill="white" stroke="#00C3D0" stroke-width="2"/>
<path d="M33.037 53.5728L36.0199 52.6936L36.2379 52.8594L37.0339 53.4645L37.6391 52.6685L38.0192 52.1686L38.623 51.3744L38.5714 51.335C38.6105 51.2797 38.6475 51.223 38.6824 51.165L38.7459 51.2134L39.3519 50.4163L39.733 49.915L40.3385 49.1185L39.5417 48.5134L39.125 48.197C39.1247 48.1967 39.1243 48.1965 39.124 48.1962C39.124 48.1962 39.1239 48.1961 39.1239 48.1961C38.8627 47.9975 38.5594 47.8829 38.2508 47.8517C37.6335 47.2481 36.7375 46.946 35.8191 47.1379L35.8134 47.1391L31.7458 48.0138C31.7458 48.0138 31.7458 48.0138 31.7457 48.0138C30.8755 48.2009 30.0654 48.6041 29.3913 49.1871C29.3912 49.1871 29.3912 49.1872 29.3911 49.1872L25.8744 52.2272L25.4184 52.6213L25.554 53.2086L26.3273 56.5591L23.3063 55.2094L22.7254 54.9499L22.2442 55.366L19.5282 57.7147L15.2037 58.4801L15.1959 58.4815L15.1881 58.483C13.7251 58.766 12.7663 60.1812 13.0493 61.6463L13.0494 61.6465C13.3287 63.0912 14.7106 64.0419 16.1537 63.796L20.3937 63.4416L20.3937 63.4417L20.4053 63.4406C21.4221 63.3436 22.3896 62.9554 23.1916 62.3228L24.8439 61.1104L26.163 62.5447L24.1476 64.1532C24.1473 64.1534 24.147 64.1536 24.1467 64.1538C22.6692 65.328 22.3917 67.7798 23.9722 69.2281L23.9972 69.251L24.0237 69.2722L30.4207 74.3822C31.5514 75.4794 33.3583 75.4769 34.4858 74.365L34.4859 74.365C35.6289 73.2377 35.6416 71.3971 34.5147 70.2538L34.482 70.2206L34.4464 70.1906L30.5586 66.9189L32.3983 65.9457L39.9085 74.1795C40.9718 75.3772 42.8045 75.4896 44.0066 74.4287L44.0071 74.4283C45.2049 73.37 45.3242 71.5443 44.2747 70.3395L31.709 55.0259L33.037 53.5728Z" fill="white" stroke="#00C3D0" stroke-width="2"/>
<path d="M36.4754 54.8779L37.0008 55.2773L39.648 52.9129L39.6028 52.879C39.4585 52.7692 39.4302 52.5616 39.5406 52.4165L39.9867 51.8294C40.097 51.6841 40.3045 51.6559 40.4488 51.7667L40.4941 51.8001L42.07 48.5978L41.5504 48.2021C41.1137 47.8711 40.4931 47.9555 40.1611 48.3908L36.2859 53.4901C35.9549 53.9253 36.0398 54.5464 36.4754 54.8779Z" fill="white"/>
<path d="M36.4754 54.8779L37.0008 55.2773L39.648 52.9129L39.6028 52.879C39.4585 52.7692 39.4302 52.5616 39.5406 52.4165L39.9867 51.8294C40.097 51.6841 40.3045 51.6559 40.4488 51.7667L40.4941 51.8001L42.07 48.5978L41.5504 48.2021C41.1137 47.8711 40.4931 47.9555 40.1611 48.3908L36.2859 53.4901C35.9549 53.9253 36.0398 54.5464 36.4754 54.8779Z" stroke="#00C3D0"/>
<path d="M25.8743 56.923L27.0654 57.4549L26.773 56.1864L24.7671 54.022L23.8984 54.7906L25.8743 56.923Z" fill="white"/>
<path d="M25.8743 56.923L27.0654 57.4549L26.773 56.1864L24.7671 54.022L23.8984 54.7906L25.8743 56.923Z" stroke="#00C3D0"/>
<path d="M21.427 54.8191C23.1727 54.8191 24.5874 53.4044 24.5874 51.6596C24.5874 49.9144 23.1727 48.4998 21.427 48.4998C19.6823 48.4998 18.2676 49.9144 18.2676 51.6596C18.2676 53.4044 19.6823 54.8191 21.427 54.8191Z" fill="white"/>
<path d="M21.427 54.8191C23.1727 54.8191 24.5874 53.4044 24.5874 51.6596C24.5874 49.9144 23.1727 48.4998 21.427 48.4998C19.6823 48.4998 18.2676 49.9144 18.2676 51.6596C18.2676 53.4044 19.6823 54.8191 21.427 54.8191Z" stroke="#00C3D0"/>
</svg>
