<svg width="61" height="72" viewBox="0 0 61 72" fill="none" xmlns="http://www.w3.org/2000/svg">
<circle cx="30.5" cy="30" r="30" fill="#00C3D0"/>
<path d="M17.586 35.8681C14.968 35.8681 12.854 33.9921 12.854 30.5341C12.854 27.1181 15.038 25.1301 17.67 25.1301C18.986 25.1301 20.036 25.7461 20.708 26.4461L19.616 27.7761C19.084 27.2581 18.496 26.9081 17.698 26.9081C16.144 26.9081 14.968 28.2521 14.968 30.4641C14.968 32.7321 16.018 34.0761 17.67 34.0761C18.552 34.0761 19.252 33.6561 19.798 33.0541L20.89 34.3561C20.036 35.3501 18.93 35.8681 17.586 35.8681ZM22.3915 35.6721V24.5141H24.4495V27.3281L24.3515 28.7981C24.9675 28.2101 25.7515 27.6501 26.8155 27.6501C28.4955 27.6501 29.2375 28.8261 29.2375 30.7861V35.6721H27.1795V31.0521C27.1795 29.8201 26.8295 29.4141 26.0735 29.4141C25.4295 29.4141 25.0235 29.7221 24.4495 30.2821V35.6721H22.3915ZM31.3466 35.6721V27.8461H33.4046V35.6721H31.3466ZM32.3686 26.5721C31.6546 26.5721 31.1786 26.1241 31.1786 25.4381C31.1786 24.7661 31.6546 24.3321 32.3686 24.3321C33.0826 24.3321 33.5726 24.7661 33.5726 25.4381C33.5726 26.1241 33.0826 26.5721 32.3686 26.5721ZM37.5305 35.8681C36.0885 35.8681 35.5985 34.9301 35.5985 33.4741V24.5141H37.6565V33.5581C37.6565 34.0481 37.8665 34.2021 38.0625 34.2021C38.1325 34.2021 38.1885 34.2021 38.3285 34.1741L38.5805 35.7001C38.3425 35.7841 38.0205 35.8681 37.5305 35.8681ZM42.7725 35.8681C40.8125 35.8681 39.5525 34.3421 39.5525 31.7661C39.5525 29.2041 41.1625 27.6501 42.8425 27.6501C43.7245 27.6501 44.2705 27.9721 44.8445 28.4901L44.7605 27.2581V24.5141H46.8185V35.6721H45.1385L44.9845 34.8601H44.9425C44.3685 35.4341 43.5845 35.8681 42.7725 35.8681ZM43.2905 34.1741C43.8505 34.1741 44.3125 33.9501 44.7605 33.3761V29.9321C44.2985 29.4981 43.7945 29.3301 43.3045 29.3301C42.4225 29.3301 41.6665 30.1701 41.6665 31.7381C41.6665 33.3761 42.2685 34.1741 43.2905 34.1741Z" fill="white"/>
<path d="M17.0066 62.3648L16.7334 63.1851L16.7334 63.185L16.7317 63.1902C16.3703 64.2959 17.1448 65.445 18.2936 65.5266V68.4375C18.2936 69.854 19.4395 71 20.8561 71C21.639 71 22.3394 70.6499 22.8092 70.0975C23.279 70.6499 23.9793 71 24.7623 71C26.1788 71 27.3248 69.854 27.3248 68.4375V65.5266C28.4642 65.4448 29.26 64.3034 28.8845 63.1839C28.8843 63.1833 28.8841 63.1826 28.8839 63.182L28.6121 62.3656C29.2899 62.4843 30.0132 62.3312 30.6025 61.8882C30.7573 61.7718 30.8952 61.6411 31.0156 61.4995C31.1799 61.6932 31.3759 61.8654 31.6018 62.0079C32.32 62.4609 33.1818 62.514 33.9186 62.2209V68.4375C33.9186 69.854 35.0645 71 36.4811 71C37.264 71 37.9644 70.6499 38.4342 70.0975C38.904 70.6499 39.6043 71 40.3873 71C41.8038 71 42.9498 69.854 42.9498 68.4375V62.2216C43.6864 62.517 44.5497 62.4681 45.2715 62.0128C46.4661 61.2591 46.8245 59.6811 46.0735 58.4827L46.0727 58.4813L43.5498 54.47C43.5495 54.4695 43.5492 54.4691 43.5489 54.4686C42.7364 53.1696 41.4458 52.2746 39.9874 51.9464C40.4929 51.7409 40.9576 51.4352 41.351 51.0418C42.1246 50.2682 42.5592 49.219 42.5592 48.125C42.5592 47.031 42.1246 45.9818 41.351 45.2082C40.5774 44.4346 39.5282 44 38.4342 44C37.3402 44 36.291 44.4346 35.5174 45.2082C34.7438 45.9818 34.3092 47.031 34.3092 48.125C34.3092 49.219 34.7438 50.2682 35.5174 51.0418C35.9116 51.4361 36.3775 51.7423 36.8844 51.9478C35.4284 52.2781 34.1399 53.1757 33.3257 54.4665L33.3253 54.4671L30.9986 58.1619L28.2257 54.504C28.2256 54.5038 28.2255 54.5037 28.2254 54.5036C28.2254 54.5035 28.2253 54.5034 28.2252 54.5033C27.2454 53.2088 25.8424 52.3225 24.2885 51.9756C24.8227 51.7704 25.3135 51.4543 25.726 51.0418C26.4996 50.2682 26.9342 49.219 26.9342 48.125C26.9342 47.031 26.4996 45.9818 25.726 45.2082C24.9524 44.4346 23.9032 44 22.8092 44C21.7152 44 20.666 44.4346 19.8924 45.2082C19.1188 45.9818 18.6842 47.031 18.6842 48.125C18.6842 49.219 19.1188 50.2682 19.8924 51.0418C20.3048 51.4543 20.7957 51.7704 21.3298 51.9756C19.7759 52.3225 18.373 53.2088 17.3931 54.5033C17.3931 54.5033 17.3931 54.5034 17.3931 54.5034C17.3929 54.5036 17.3928 54.5038 17.3926 54.504L14.5172 58.2973L14.5171 58.2973L14.5147 58.3005C13.6675 59.4274 13.8884 61.0345 15.0132 61.8861C15.6034 62.333 16.3277 62.4851 17.0066 62.3648Z" fill="white" stroke="#00C3D0" stroke-width="2"/>
</svg>
