<svg width="561" height="633" viewBox="0 0 561 633" fill="none" xmlns="http://www.w3.org/2000/svg">
<path d="M302.487 13.126C300.822 13.126 299.67 11.794 299.67 9.679C299.67 7.564 300.822 6.286 302.487 6.286C304.143 6.286 305.295 7.573 305.295 9.679C305.295 11.794 304.143 13.126 302.487 13.126ZM302.487 12.388C303.666 12.388 304.449 11.326 304.449 9.679C304.449 8.032 303.666 7.015 302.487 7.015C301.299 7.015 300.525 8.032 300.525 9.679C300.525 11.326 301.299 12.388 302.487 12.388ZM306.224 13V12.523C308.159 10.597 309.239 9.436 309.239 8.383C309.239 7.654 308.852 7.132 308.033 7.132C307.493 7.132 307.025 7.474 306.656 7.906L306.179 7.438C306.719 6.853 307.295 6.475 308.132 6.475C309.311 6.475 310.049 7.213 310.049 8.356C310.049 9.562 308.942 10.759 307.421 12.361C307.763 12.325 308.168 12.298 308.501 12.298H310.364V13H306.224ZM311.234 10.804V10.174H313.538V10.804H311.234ZM320.195 9.58C320.195 7.825 320.906 6.403 321.986 5.305L322.526 5.584C321.482 6.655 320.843 7.978 320.843 9.58C320.843 11.191 321.482 12.514 322.526 13.585L321.986 13.864C320.906 12.766 320.195 11.344 320.195 9.58ZM330.131 6.988C330.077 7.06 329.96 7.258 329.915 7.375C329.555 8.266 328.871 9.526 328.124 10.354C327.116 11.479 325.829 12.55 324.407 13.198L323.831 12.595C325.289 12.037 326.612 10.957 327.539 9.931C328.151 9.238 328.808 8.167 329.042 7.42C328.718 7.42 325.838 7.42 325.532 7.42C325.208 7.42 324.722 7.456 324.623 7.465V6.655C324.74 6.673 325.253 6.709 325.532 6.709C325.883 6.709 328.664 6.709 329.006 6.709C329.294 6.709 329.537 6.682 329.681 6.637L330.131 6.988ZM328.241 9.886C329.213 10.696 330.41 11.956 331.022 12.703L330.401 13.252C329.753 12.397 328.7 11.245 327.728 10.39L328.241 9.886ZM332.849 9.103C333.128 9.13 333.596 9.157 334.109 9.157C334.766 9.157 338.375 9.157 339.041 9.157C339.491 9.157 339.806 9.121 340.013 9.103V9.985C339.824 9.976 339.446 9.949 339.05 9.949C338.366 9.949 334.775 9.949 334.109 9.949C333.614 9.949 333.137 9.967 332.849 9.985V9.103ZM347.89 6.727C347.89 7.06 348.16 7.321 348.484 7.321C348.808 7.321 349.078 7.06 349.078 6.727C349.078 6.403 348.808 6.133 348.484 6.133C348.16 6.133 347.89 6.403 347.89 6.727ZM347.476 6.727C347.476 6.169 347.926 5.719 348.484 5.719C349.042 5.719 349.492 6.169 349.492 6.727C349.492 7.285 349.042 7.735 348.484 7.735C347.926 7.735 347.476 7.285 347.476 6.727ZM342.805 10.3C343.201 9.364 343.57 7.996 343.696 6.961L344.497 7.123C344.434 7.321 344.371 7.591 344.326 7.78C344.209 8.338 343.894 9.67 343.516 10.597C343.183 11.416 342.688 12.343 342.184 13.072L341.419 12.748C341.986 11.992 342.499 11.047 342.805 10.3ZM347.242 9.958C346.882 9.031 346.324 7.78 345.937 7.105L346.666 6.862C347.017 7.519 347.593 8.761 347.98 9.706C348.34 10.597 348.817 11.974 349.06 12.793L348.259 13.045C348.034 12.136 347.611 10.912 347.242 9.958ZM350.761 9.103C351.04 9.13 351.508 9.157 352.021 9.157C352.678 9.157 356.287 9.157 356.953 9.157C357.403 9.157 357.718 9.121 357.925 9.103V9.985C357.736 9.976 357.358 9.949 356.962 9.949C356.278 9.949 352.687 9.949 352.021 9.949C351.526 9.949 351.049 9.967 350.761 9.985V9.103ZM364.783 5.962C364.747 6.205 364.729 6.466 364.738 6.709C364.747 7.708 364.81 10.849 364.819 12.532C364.828 13.009 364.54 13.261 364 13.261C363.541 13.261 363.01 13.234 362.56 13.207L362.497 12.46C362.929 12.532 363.433 12.568 363.775 12.568C364.027 12.568 364.108 12.451 364.108 12.208C364.108 10.921 364.072 7.708 364.027 6.709C364.009 6.367 363.991 6.151 363.955 5.962H364.783ZM359.95 7.537C360.211 7.564 360.508 7.582 360.778 7.582C361.255 7.582 365.71 7.582 366.169 7.582C366.403 7.582 366.754 7.555 366.934 7.528V8.293C366.718 8.284 366.412 8.266 366.187 8.266C365.791 8.266 361.201 8.266 360.796 8.266C360.49 8.266 360.238 8.284 359.95 8.302V7.537ZM359.626 11.74C361.525 10.804 363.19 9.229 363.856 8.131H364.216L364.225 8.734C363.541 9.805 361.867 11.407 360.139 12.325L359.626 11.74ZM371.371 6.637C371.326 6.412 371.272 6.214 371.209 6.025L372.01 5.89C372.028 6.052 372.064 6.313 372.1 6.511C372.154 6.907 373.144 11.848 373.27 12.442C373.333 12.694 373.405 13 373.495 13.261L372.667 13.414C372.622 13.108 372.595 12.829 372.532 12.568C372.442 12.001 371.479 7.105 371.371 6.637ZM368.833 7.942C369.058 7.924 369.301 7.906 369.589 7.879C370.399 7.789 373.504 7.294 374.359 7.123C374.62 7.078 374.854 7.024 375.007 6.979L375.151 7.735C375.016 7.744 374.746 7.789 374.503 7.825C373.576 7.969 370.507 8.455 369.715 8.59C369.472 8.635 369.256 8.68 368.995 8.743L368.833 7.942ZM368.806 10.534C369.022 10.525 369.364 10.489 369.598 10.453C370.561 10.327 373.909 9.778 374.989 9.58C375.331 9.517 375.592 9.454 375.781 9.4L375.934 10.156C375.745 10.174 375.457 10.228 375.124 10.282C373.927 10.462 370.678 10.993 369.769 11.155C369.418 11.218 369.166 11.272 368.968 11.326L368.806 10.534ZM379.552 6.088C380.083 6.385 381.118 7.078 381.514 7.366L381.091 7.978C380.659 7.645 379.678 6.997 379.156 6.7L379.552 6.088ZM378.202 12.523C379.192 12.352 380.308 11.992 381.226 11.479C382.72 10.624 383.908 9.445 384.628 8.176L385.069 8.923C384.286 10.129 383.044 11.29 381.604 12.136C380.695 12.667 379.453 13.081 378.625 13.252L378.202 12.523ZM378.202 8.113C378.733 8.401 379.786 9.049 380.173 9.328L379.759 9.958C379.318 9.634 378.346 9.013 377.797 8.725L378.202 8.113ZM391.756 6.529C391.981 6.853 392.368 7.456 392.575 7.888L392.062 8.122C391.837 7.645 391.549 7.15 391.252 6.745L391.756 6.529ZM392.836 6.079C393.079 6.394 393.475 6.988 393.682 7.411L393.178 7.663C392.944 7.186 392.647 6.709 392.35 6.313L392.836 6.079ZM388.597 12.325C388.597 11.83 388.597 7.852 388.597 7.096C388.597 6.835 388.57 6.439 388.525 6.16H389.407C389.38 6.43 389.344 6.826 389.344 7.096C389.344 8.5 389.353 11.902 389.353 12.325C389.353 12.613 389.371 13.099 389.407 13.396H388.534C388.579 13.108 388.597 12.667 388.597 12.325ZM389.182 8.518C390.379 8.86 392.188 9.553 393.187 10.048L392.872 10.804C391.846 10.255 390.163 9.616 389.182 9.31V8.518ZM397.588 9.58C397.588 11.344 396.877 12.766 395.797 13.864L395.257 13.585C396.301 12.514 396.94 11.191 396.94 9.58C396.94 7.978 396.301 6.655 395.257 5.584L395.797 5.305C396.877 6.403 397.588 7.825 397.588 9.58Z" fill="#484F51"/>
<path d="M500.949 13V6.403H501.786V9.166H504.864V6.403H505.692V13H504.864V9.895H501.786V13H500.949ZM506.993 13V12.523C508.928 10.597 510.008 9.436 510.008 8.383C510.008 7.654 509.621 7.132 508.802 7.132C508.262 7.132 507.794 7.474 507.425 7.906L506.948 7.438C507.488 6.853 508.064 6.475 508.901 6.475C510.08 6.475 510.818 7.213 510.818 8.356C510.818 9.562 509.711 10.759 508.19 12.361C508.532 12.325 508.937 12.298 509.27 12.298H511.133V13H506.993ZM514.928 13.126C513.263 13.126 512.111 11.794 512.111 9.679C512.111 7.564 513.263 6.286 514.928 6.286C516.584 6.286 517.736 7.573 517.736 9.679C517.736 11.794 516.584 13.126 514.928 13.126ZM514.928 12.388C516.107 12.388 516.89 11.326 516.89 9.679C516.89 8.032 516.107 7.015 514.928 7.015C513.74 7.015 512.966 8.032 512.966 9.679C512.966 11.326 513.74 12.388 514.928 12.388ZM518.665 13V12.523C520.6 10.597 521.68 9.436 521.68 8.383C521.68 7.654 521.293 7.132 520.474 7.132C519.934 7.132 519.466 7.474 519.097 7.906L518.62 7.438C519.16 6.853 519.736 6.475 520.573 6.475C521.752 6.475 522.49 7.213 522.49 8.356C522.49 9.562 521.383 10.759 519.862 12.361C520.204 12.325 520.609 12.298 520.942 12.298H522.805V13H518.665ZM527.434 11.956V9.994H525.607V9.382H527.434V7.411H528.1V9.382H529.927V9.994H528.1V11.956H527.434ZM535.618 13.126C533.953 13.126 532.801 11.794 532.801 9.679C532.801 7.564 533.953 6.286 535.618 6.286C537.274 6.286 538.426 7.573 538.426 9.679C538.426 11.794 537.274 13.126 535.618 13.126ZM535.618 12.388C536.797 12.388 537.58 11.326 537.58 9.679C537.58 8.032 536.797 7.015 535.618 7.015C534.43 7.015 533.656 8.032 533.656 9.679C533.656 11.326 534.43 12.388 535.618 12.388ZM539.354 13V12.523C541.289 10.597 542.369 9.436 542.369 8.383C542.369 7.654 541.982 7.132 541.163 7.132C540.623 7.132 540.155 7.474 539.786 7.906L539.309 7.438C539.849 6.853 540.425 6.475 541.262 6.475C542.441 6.475 543.179 7.213 543.179 8.356C543.179 9.562 542.072 10.759 540.551 12.361C540.893 12.325 541.298 12.298 541.631 12.298H543.494V13H539.354Z" fill="#484F51"/>
<rect x="429" y="1" width="41.4087" height="15.4592" rx="4" fill="#D9D9D9"/>
<path d="M440.87 12.543C439.943 12.543 439.142 12.165 438.566 11.562L439.061 10.986C439.538 11.49 440.204 11.805 440.888 11.805C441.752 11.805 442.265 11.373 442.265 10.734C442.265 10.05 441.788 9.83399 441.167 9.56399L440.222 9.14999C439.601 8.88899 438.881 8.42099 438.881 7.45799C438.881 6.44099 439.754 5.70299 440.96 5.70299C441.743 5.70299 442.436 6.03599 442.895 6.52199L442.454 7.05299C442.049 6.67499 441.563 6.43199 440.96 6.43199C440.213 6.43199 439.727 6.80999 439.727 7.39499C439.727 8.04299 440.303 8.27699 440.816 8.49299L441.752 8.89799C442.526 9.23099 443.111 9.68999 443.111 10.671C443.111 11.715 442.256 12.543 440.87 12.543ZM446.843 12.543C445.178 12.543 444.026 11.211 444.026 9.09599C444.026 6.98099 445.178 5.70299 446.843 5.70299C448.499 5.70299 449.651 6.98999 449.651 9.09599C449.651 11.211 448.499 12.543 446.843 12.543ZM446.843 11.805C448.022 11.805 448.805 10.743 448.805 9.09599C448.805 7.44899 448.022 6.43199 446.843 6.43199C445.655 6.43199 444.881 7.44899 444.881 9.09599C444.881 10.743 445.655 11.805 446.843 11.805ZM451.084 12.417V5.81999H452.731C454.765 5.81999 455.845 6.99899 455.845 9.09599C455.845 11.193 454.765 12.417 452.776 12.417H451.084ZM451.921 11.733H452.668C454.216 11.733 454.99 10.77 454.99 9.09599C454.99 7.42199 454.216 6.50399 452.668 6.50399H451.921V11.733ZM457.172 12.417V11.733H458.639V7.00799H457.46V6.47699C458.054 6.36899 458.477 6.21599 458.828 6.00899H459.458V11.733H460.79V12.417H457.172Z" fill="#484F51"/>
<path d="M424.354 10.3536C424.549 10.1583 424.549 9.84171 424.354 9.64645L421.172 6.46447C420.976 6.2692 420.66 6.2692 420.464 6.46447C420.269 6.65973 420.269 6.97631 420.464 7.17157L423.293 10L420.464 12.8284C420.269 13.0237 420.269 13.3403 420.464 13.5355C420.66 13.7308 420.976 13.7308 421.172 13.5355L424.354 10.3536ZM404 10.5H424V9.5H404V10.5Z" fill="#484F51"/>
<path d="M495.354 10.3536C495.549 10.1583 495.549 9.84171 495.354 9.64645L492.172 6.46447C491.976 6.2692 491.66 6.2692 491.464 6.46447C491.269 6.65973 491.269 6.97631 491.464 7.17157L494.293 10L491.464 12.8284C491.269 13.0237 491.269 13.3403 491.464 13.5355C491.66 13.7308 491.976 13.7308 492.172 13.5355L495.354 10.3536ZM475 10.5H495V9.5H475V10.5Z" fill="#484F51"/>
<rect y="40" width="561" height="188" fill="#F8F8F8"/>
<path d="M29.3536 205.646C29.1583 205.451 28.8417 205.451 28.6464 205.646L25.4645 208.828C25.2692 209.024 25.2692 209.34 25.4645 209.536C25.6597 209.731 25.9763 209.731 26.1716 209.536L29 206.707L31.8284 209.536C32.0237 209.731 32.3403 209.731 32.5355 209.536C32.7308 209.34 32.7308 209.024 32.5355 208.828L29.3536 205.646ZM28.5 206L28.5 243L29.5 243L29.5 206L28.5 206Z" fill="#484F51"/>
<path d="M168.354 205.646C168.158 205.451 167.842 205.451 167.646 205.646L164.464 208.828C164.269 209.024 164.269 209.34 164.464 209.536C164.66 209.731 164.976 209.731 165.172 209.536L168 206.707L170.828 209.536C171.024 209.731 171.34 209.731 171.536 209.536C171.731 209.34 171.731 209.024 171.536 208.828L168.354 205.646ZM167.5 206L167.5 243L168.5 243L168.5 206L167.5 206Z" fill="#484F51"/>
<path d="M280.646 283.354C280.842 283.549 281.158 283.549 281.354 283.354L284.536 280.172C284.731 279.976 284.731 279.66 284.536 279.464C284.34 279.269 284.024 279.269 283.828 279.464L281 282.293L278.172 279.464C277.976 279.269 277.66 279.269 277.464 279.464C277.269 279.66 277.269 279.976 277.464 280.172L280.646 283.354ZM280.5 206V283H281.5V206H280.5Z" fill="#484F51"/>
<path d="M280.646 319.354C280.842 319.549 281.158 319.549 281.354 319.354L284.536 316.172C284.731 315.976 284.731 315.66 284.536 315.464C284.34 315.269 284.024 315.269 283.828 315.464L281 318.293L278.172 315.464C277.976 315.269 277.66 315.269 277.464 315.464C277.269 315.66 277.269 315.976 277.464 316.172L280.646 319.354ZM280.5 305V319H281.5V305H280.5Z" fill="#484F51"/>
<path d="M280.646 363.354C280.842 363.549 281.158 363.549 281.354 363.354L284.536 360.172C284.731 359.976 284.731 359.66 284.536 359.464C284.34 359.269 284.024 359.269 283.828 359.464L281 362.293L278.172 359.464C277.976 359.269 277.66 359.269 277.464 359.464C277.269 359.66 277.269 359.976 277.464 360.172L280.646 363.354ZM280.5 349V363H281.5V349H280.5Z" fill="#484F51"/>
<path d="M371.354 373.354C371.549 373.158 371.549 372.842 371.354 372.646L368.172 369.464C367.976 369.269 367.66 369.269 367.464 369.464C367.269 369.66 367.269 369.976 367.464 370.172L370.293 373L367.464 375.828C367.269 376.024 367.269 376.34 367.464 376.536C367.66 376.731 367.976 376.731 368.172 376.536L371.354 373.354ZM357 373.5H371V372.5H357V373.5Z" fill="#484F51"/>
<path d="M456.354 373.354C456.549 373.158 456.549 372.842 456.354 372.646L453.172 369.464C452.976 369.269 452.66 369.269 452.464 369.464C452.269 369.66 452.269 369.976 452.464 370.172L455.293 373L452.464 375.828C452.269 376.024 452.269 376.34 452.464 376.536C452.66 376.731 452.976 376.731 453.172 376.536L456.354 373.354ZM442 373.5H456V372.5H442V373.5Z" fill="#484F51"/>
<path d="M377.354 205.646C377.158 205.451 376.842 205.451 376.646 205.646L373.464 208.828C373.269 209.024 373.269 209.34 373.464 209.536C373.66 209.731 373.976 209.731 374.172 209.536L377 206.707L379.828 209.536C380.024 209.731 380.34 209.731 380.536 209.536C380.731 209.34 380.731 209.024 380.536 208.828L377.354 205.646ZM376.5 206L376.5 243L377.5 243L377.5 206L376.5 206Z" fill="#484F51"/>
<path d="M415.646 243.354C415.842 243.549 416.158 243.549 416.354 243.354L419.536 240.172C419.731 239.976 419.731 239.66 419.536 239.464C419.34 239.269 419.024 239.269 418.828 239.464L416 242.293L413.172 239.464C412.976 239.269 412.66 239.269 412.464 239.464C412.269 239.66 412.269 239.976 412.464 240.172L415.646 243.354ZM415.5 206L415.5 243L416.5 243L416.5 206L415.5 206Z" fill="#484F51"/>
<path d="M510.646 243.354C510.842 243.549 511.158 243.549 511.354 243.354L514.536 240.172C514.731 239.976 514.731 239.66 514.536 239.464C514.34 239.269 514.024 239.269 513.828 239.464L511 242.293L508.172 239.464C507.976 239.269 507.66 239.269 507.464 239.464C507.269 239.66 507.269 239.976 507.464 240.172L510.646 243.354ZM510.5 206L510.5 243L511.5 243L511.5 206L510.5 206Z" fill="#484F51"/>
<path d="M70.3536 205.646C70.1583 205.451 69.8417 205.451 69.6464 205.646L66.4645 208.828C66.2692 209.024 66.2692 209.34 66.4645 209.536C66.6597 209.731 66.9763 209.731 67.1716 209.536L70 206.707L72.8284 209.536C73.0237 209.731 73.3403 209.731 73.5355 209.536C73.7308 209.34 73.7308 209.024 73.5355 208.828L70.3536 205.646ZM69.5 206L69.5 224.5L70.5 224.5L70.5 206L69.5 206ZM69.5 224.5L69.5 243L70.5 243L70.5 224.5L69.5 224.5Z" fill="#484F51"/>
<path d="M76.5 94L76.5 105" stroke="#484F51"/>
<path d="M165 94L165 105" stroke="#484F51"/>
<path d="M299 94L299 105" stroke="#484F51"/>
<rect x="6.22656" y="104.962" width="87.7731" height="23.3333" fill="#D9D9D9"/>
<rect x="6.5" y="105.462" width="86.9603" height="99" stroke="#C5C5C5"/>
<rect x="24.0586" y="154.962" width="51.07" height="17.1769" rx="4" fill="#D9D9D9"/>
<path d="M31.2946 166.923V160.326H32.1496L34.5526 164.484L35.2636 165.852H35.3086C35.2546 165.186 35.1916 164.439 35.1916 163.755V160.326H35.9926V166.923H35.1286L32.7346 162.765L32.0236 161.406H31.9786C32.0236 162.072 32.0866 162.765 32.0866 163.467V166.923H31.2946ZM37.7985 166.923V160.326H39.4455C41.4795 160.326 42.5595 161.505 42.5595 163.602C42.5595 165.699 41.4795 166.923 39.4905 166.923H37.7985ZM38.6355 166.239H39.3825C40.9305 166.239 41.7045 165.276 41.7045 163.602C41.7045 161.928 40.9305 161.01 39.3825 161.01H38.6355V166.239ZM46.3348 167.049C44.9938 167.049 43.9678 166.32 43.9678 164.205V160.326H44.7958V164.232C44.7958 165.816 45.4708 166.311 46.3348 166.311C47.2078 166.311 47.9098 165.816 47.9098 164.232V160.326H48.7108V164.205C48.7108 166.32 47.6848 167.049 46.3348 167.049ZM50.4811 166.923V160.326H54.2791V161.028H51.3181V163.269H53.8291V163.962H51.3181V166.923H50.4811ZM57.0542 167.049C56.1272 167.049 55.3262 166.671 54.7502 166.068L55.2452 165.492C55.7222 165.996 56.3882 166.311 57.0722 166.311C57.9362 166.311 58.4492 165.879 58.4492 165.24C58.4492 164.556 57.9722 164.34 57.3512 164.07L56.4062 163.656C55.7852 163.395 55.0652 162.927 55.0652 161.964C55.0652 160.947 55.9382 160.209 57.1442 160.209C57.9272 160.209 58.6202 160.542 59.0792 161.028L58.6382 161.559C58.2332 161.181 57.7472 160.938 57.1442 160.938C56.3972 160.938 55.9112 161.316 55.9112 161.901C55.9112 162.549 56.4872 162.783 57.0002 162.999L57.9362 163.404C58.7102 163.737 59.2952 164.196 59.2952 165.177C59.2952 166.221 58.4402 167.049 57.0542 167.049ZM62.1005 165.204L62.7935 165.465C62.2175 166.203 61.3625 166.968 60.6335 167.463C60.4985 167.328 60.2105 167.103 60.0305 166.995C60.7865 166.563 61.5965 165.87 62.1005 165.204ZM65.4575 165.546L66.0065 165.168C66.7715 165.717 67.7615 166.509 68.2565 167.022L67.6625 167.445C67.2035 166.932 66.2405 166.113 65.4575 165.546ZM60.8495 161.964L61.3175 161.55C62.1275 162 63.1445 162.702 63.6395 163.215L63.1445 163.701C62.6765 163.188 61.6775 162.45 60.8495 161.964ZM65.5565 163.116L66.0965 162.765C66.8885 163.395 67.8515 164.304 68.3195 164.925L67.7165 165.321C67.2935 164.709 66.3485 163.773 65.5565 163.116ZM63.8105 164.376H64.5215V167.652H63.8105V164.376ZM60.1835 164.115C61.9295 164.106 64.7555 164.052 67.3655 163.998L67.3295 164.601C64.7645 164.691 62.0375 164.754 60.2555 164.79L60.1835 164.115ZM65.6915 160.848L66.3395 161.19C65.2415 162.36 63.6845 163.719 62.4965 164.565L61.9745 164.223C63.1805 163.377 64.7465 161.946 65.6915 160.848ZM63.3605 160.236L64.0085 160.569C63.4775 161.217 62.7665 161.964 62.2175 162.441L61.6865 162.144C62.2265 161.658 62.9465 160.839 63.3605 160.236ZM67.1135 159.498L67.6085 160.074C65.7815 160.425 62.9735 160.614 60.6335 160.668C60.6155 160.497 60.5345 160.227 60.4715 160.065C62.7935 159.993 65.5655 159.804 67.1135 159.498Z" fill="#484F51"/>
<path d="M32.6041 117.939H36.0601V118.635H32.1121L32.6041 117.939ZM35.7841 117.939H35.9761L36.1561 117.903L36.6841 118.215C35.6161 120.447 33.2161 121.539 30.5761 122.055C30.4921 121.839 30.2641 121.455 30.1081 121.275C32.6521 120.867 34.9081 119.931 35.7841 118.083V117.939ZM32.5201 118.419C33.4081 119.907 35.3401 120.903 37.6681 121.251C37.4641 121.443 37.2241 121.803 37.1041 122.043C34.7161 121.575 32.7841 120.435 31.7641 118.659L32.5201 118.419ZM32.3401 115.743V116.559H35.8441V115.743H32.3401ZM32.3401 114.363V115.155H35.8441V114.363H32.3401ZM31.5121 113.739H36.6961V117.171H31.5121V113.739ZM31.8601 112.203H37.4281V112.971H31.8601V112.203ZM32.1361 110.991L33.0001 111.135C32.5441 112.251 31.9081 113.523 30.9241 114.555C30.7681 114.375 30.4801 114.135 30.2761 114.039C31.1881 113.127 31.8121 111.927 32.1361 110.991ZM33.0601 116.907L33.9481 117.075C33.2641 118.131 32.2321 119.199 30.7681 120.039C30.6361 119.847 30.3601 119.583 30.1681 119.451C31.5481 118.731 32.5321 117.747 33.0601 116.907ZM28.1401 116.883L28.9561 115.899V122.043H28.1401V116.883ZM26.6161 113.283H29.8801V114.075H26.6161V113.283ZM28.1041 111.063H28.9201V113.715H28.1041V111.063ZM28.8481 115.959C29.1601 116.295 30.3001 117.699 30.5521 118.047L30.0241 118.659C29.7121 118.095 28.7641 116.799 28.3921 116.343L28.8481 115.959ZM29.5681 113.283H29.7361L29.8921 113.235L30.3601 113.535C29.6401 115.731 28.1761 117.855 26.7961 119.055C26.7001 118.839 26.4721 118.443 26.3281 118.287C27.6241 117.243 28.9801 115.299 29.5681 113.463V113.283ZM30.2521 115.467L30.7801 115.851C30.4561 116.367 30.0721 116.943 29.7601 117.315L29.3401 116.991C29.6281 116.583 30.0361 115.911 30.2521 115.467ZM40.9561 114.915H47.0161V115.719H40.9561V114.915ZM40.7401 120.747H47.1721V121.551H40.7401V120.747ZM40.3321 117.231H47.6761V122.043H46.7641V118.047H41.2081V122.043H40.3321V117.231ZM43.9441 111.915C42.9601 113.379 40.9921 115.083 38.9401 116.199C38.8201 115.995 38.5801 115.671 38.3761 115.479C40.4881 114.411 42.4921 112.575 43.4401 111.027H44.3521C45.6481 112.815 47.7481 114.483 49.6681 115.335C49.4401 115.551 49.2241 115.863 49.0681 116.127C47.1841 115.143 45.0721 113.451 43.9441 111.915ZM52.9801 111.039L53.8321 111.291C53.1361 113.319 52.0441 115.359 50.8681 116.715C50.7721 116.511 50.5081 116.043 50.3401 115.827C51.4081 114.651 52.3921 112.851 52.9801 111.039ZM51.9001 114.135L52.7401 113.283L52.7521 113.295V122.019H51.9001V114.135ZM56.9401 111.039H57.8161V121.971H56.9401V111.039ZM53.5561 113.415H61.4161V114.279H53.5561V113.415ZM54.9601 118.983H59.7601V119.799H54.9601V118.983ZM58.2481 113.859C58.9321 116.007 60.2521 118.239 61.6561 119.367C61.4401 119.523 61.1401 119.835 60.9721 120.075C59.5681 118.791 58.2841 116.403 57.5761 114.063L58.2481 113.859ZM56.5681 113.811L57.2281 114.015C56.4841 116.415 55.1761 118.791 53.7241 120.111C53.5921 119.883 53.2921 119.571 53.0881 119.427C54.4921 118.287 55.8601 116.007 56.5681 113.811ZM67.4041 121.071V112.299H68.5441V121.071H67.4041Z" fill="#484F51"/>
<rect x="121.559" y="104.962" width="87.7731" height="23.3333" fill="#D9D9D9"/>
<rect x="121.832" y="105.462" width="86.9603" height="99" stroke="#C5C5C5"/>
<path d="M147.936 117.939H151.392V118.635H147.444L147.936 117.939ZM151.116 117.939H151.308L151.488 117.903L152.016 118.215C150.948 120.447 148.548 121.539 145.908 122.055C145.824 121.839 145.596 121.455 145.44 121.275C147.984 120.867 150.24 119.931 151.116 118.083V117.939ZM147.852 118.419C148.74 119.907 150.672 120.903 153 121.251C152.796 121.443 152.556 121.803 152.436 122.043C150.048 121.575 148.116 120.435 147.096 118.659L147.852 118.419ZM147.672 115.743V116.559H151.176V115.743H147.672ZM147.672 114.363V115.155H151.176V114.363H147.672ZM146.844 113.739H152.028V117.171H146.844V113.739ZM147.192 112.203H152.76V112.971H147.192V112.203ZM147.468 110.991L148.332 111.135C147.876 112.251 147.24 113.523 146.256 114.555C146.1 114.375 145.812 114.135 145.608 114.039C146.52 113.127 147.144 111.927 147.468 110.991ZM148.392 116.907L149.28 117.075C148.596 118.131 147.564 119.199 146.1 120.039C145.968 119.847 145.692 119.583 145.5 119.451C146.88 118.731 147.864 117.747 148.392 116.907ZM143.472 116.883L144.288 115.899V122.043H143.472V116.883ZM141.948 113.283H145.212V114.075H141.948V113.283ZM143.436 111.063H144.252V113.715H143.436V111.063ZM144.18 115.959C144.492 116.295 145.632 117.699 145.884 118.047L145.356 118.659C145.044 118.095 144.096 116.799 143.724 116.343L144.18 115.959ZM144.9 113.283H145.068L145.224 113.235L145.692 113.535C144.972 115.731 143.508 117.855 142.128 119.055C142.032 118.839 141.804 118.443 141.66 118.287C142.956 117.243 144.312 115.299 144.9 113.463V113.283ZM145.584 115.467L146.112 115.851C145.788 116.367 145.404 116.943 145.092 117.315L144.672 116.991C144.96 116.583 145.368 115.911 145.584 115.467ZM156.288 114.915H162.348V115.719H156.288V114.915ZM156.072 120.747H162.504V121.551H156.072V120.747ZM155.664 117.231H163.008V122.043H162.096V118.047H156.54V122.043H155.664V117.231ZM159.276 111.915C158.292 113.379 156.324 115.083 154.272 116.199C154.152 115.995 153.912 115.671 153.708 115.479C155.82 114.411 157.824 112.575 158.772 111.027H159.684C160.98 112.815 163.08 114.483 165 115.335C164.772 115.551 164.556 115.863 164.4 116.127C162.516 115.143 160.404 113.451 159.276 111.915ZM168.312 111.039L169.164 111.291C168.468 113.319 167.376 115.359 166.2 116.715C166.104 116.511 165.84 116.043 165.672 115.827C166.74 114.651 167.724 112.851 168.312 111.039ZM167.232 114.135L168.072 113.283L168.084 113.295V122.019H167.232V114.135ZM172.272 111.039H173.148V121.971H172.272V111.039ZM168.888 113.415H176.748V114.279H168.888V113.415ZM170.292 118.983H175.092V119.799H170.292V118.983ZM173.58 113.859C174.264 116.007 175.584 118.239 176.988 119.367C176.772 119.523 176.472 119.835 176.304 120.075C174.9 118.791 173.616 116.403 172.908 114.063L173.58 113.859ZM171.9 113.811L172.56 114.015C171.816 116.415 170.508 118.791 169.056 120.111C168.924 119.883 168.624 119.571 168.42 119.427C169.824 118.287 171.192 116.007 171.9 113.811ZM180.972 121.071V112.299H182.112V121.071H180.972ZM184.512 121.071V112.299H185.652V121.071H184.512Z" fill="#484F51"/>
<rect x="237.227" y="104.962" width="87.7731" height="23.3333" fill="#D9D9D9"/>
<rect x="237.5" y="105.462" width="86.9603" height="99" stroke="#C5C5C5"/>
<rect x="255.059" y="154.962" width="51.07" height="17.1769" rx="4" fill="#D9D9D9"/>
<path d="M266.972 167.049C265.631 167.049 264.605 166.32 264.605 164.205V160.326H265.433V164.232C265.433 165.816 266.108 166.311 266.972 166.311C267.845 166.311 268.547 165.816 268.547 164.232V160.326H269.348V164.205C269.348 166.32 268.322 167.049 266.972 167.049ZM273.558 167.049C271.893 167.049 270.741 165.717 270.741 163.602C270.741 161.487 271.893 160.209 273.558 160.209C275.214 160.209 276.366 161.496 276.366 163.602C276.366 165.717 275.214 167.049 273.558 167.049ZM273.558 166.356C274.737 166.356 275.52 165.294 275.52 163.602C275.52 161.955 274.737 160.938 273.558 160.938C272.37 160.938 271.596 161.955 271.596 163.602C271.596 165.294 272.37 166.356 273.558 166.356ZM275.574 168.588C274.314 168.588 273.459 167.868 273.108 166.905L273.972 166.842C274.233 167.535 274.881 167.886 275.664 167.886C275.961 167.886 276.177 167.85 276.357 167.787L276.519 168.435C276.312 168.516 275.97 168.588 275.574 168.588ZM280.291 167.049C278.644 167.049 277.42 165.771 277.42 163.629C277.42 161.505 278.671 160.209 280.345 160.209C281.146 160.209 281.767 160.596 282.154 161.019L281.695 161.559C281.353 161.19 280.912 160.938 280.354 160.938C279.103 160.938 278.275 161.964 278.275 163.611C278.275 165.276 279.067 166.311 280.327 166.311C280.948 166.311 281.434 166.041 281.857 165.573L282.307 166.095C281.785 166.707 281.146 167.049 280.291 167.049ZM283.538 166.923V160.326H285.599C286.94 160.326 287.903 160.812 287.903 162.18C287.903 163.503 286.94 164.133 285.599 164.133H284.375V166.923H283.538ZM284.375 163.458H285.482C286.508 163.458 287.075 163.035 287.075 162.18C287.075 161.316 286.508 161.01 285.482 161.01H284.375V163.458ZM287.165 166.923L285.437 163.908L286.085 163.476L288.101 166.923H287.165ZM290.763 165.204L291.456 165.465C290.88 166.203 290.025 166.968 289.296 167.463C289.161 167.328 288.873 167.103 288.693 166.995C289.449 166.563 290.259 165.87 290.763 165.204ZM294.12 165.546L294.669 165.168C295.434 165.717 296.424 166.509 296.919 167.022L296.325 167.445C295.866 166.932 294.903 166.113 294.12 165.546ZM289.512 161.964L289.98 161.55C290.79 162 291.807 162.702 292.302 163.215L291.807 163.701C291.339 163.188 290.34 162.45 289.512 161.964ZM294.219 163.116L294.759 162.765C295.551 163.395 296.514 164.304 296.982 164.925L296.379 165.321C295.956 164.709 295.011 163.773 294.219 163.116ZM292.473 164.376H293.184V167.652H292.473V164.376ZM288.846 164.115C290.592 164.106 293.418 164.052 296.028 163.998L295.992 164.601C293.427 164.691 290.7 164.754 288.918 164.79L288.846 164.115ZM294.354 160.848L295.002 161.19C293.904 162.36 292.347 163.719 291.159 164.565L290.637 164.223C291.843 163.377 293.409 161.946 294.354 160.848ZM292.023 160.236L292.671 160.569C292.14 161.217 291.429 161.964 290.88 162.441L290.349 162.144C290.889 161.658 291.609 160.839 292.023 160.236ZM295.776 159.498L296.271 160.074C294.444 160.425 291.636 160.614 289.296 160.668C289.278 160.497 289.197 160.227 289.134 160.065C291.456 159.993 294.228 159.804 295.776 159.498Z" fill="#484F51"/>
<rect x="255" y="327" width="51.07" height="17.1769" rx="4" fill="#D9D9D9"/>
<path d="M271.595 339.087C270.668 339.087 269.867 338.709 269.291 338.106L269.786 337.53C270.263 338.034 270.929 338.349 271.613 338.349C272.477 338.349 272.99 337.917 272.99 337.278C272.99 336.594 272.513 336.378 271.892 336.108L270.947 335.694C270.326 335.433 269.606 334.965 269.606 334.002C269.606 332.985 270.479 332.247 271.685 332.247C272.468 332.247 273.161 332.58 273.62 333.066L273.179 333.597C272.774 333.219 272.288 332.976 271.685 332.976C270.938 332.976 270.452 333.354 270.452 333.939C270.452 334.587 271.028 334.821 271.541 335.037L272.477 335.442C273.251 335.775 273.836 336.234 273.836 337.215C273.836 338.259 272.981 339.087 271.595 339.087ZM277.569 339.087C275.904 339.087 274.752 337.755 274.752 335.64C274.752 333.525 275.904 332.247 277.569 332.247C279.225 332.247 280.377 333.534 280.377 335.64C280.377 337.755 279.225 339.087 277.569 339.087ZM277.569 338.349C278.748 338.349 279.531 337.287 279.531 335.64C279.531 333.993 278.748 332.976 277.569 332.976C276.381 332.976 275.607 333.993 275.607 335.64C275.607 337.287 276.381 338.349 277.569 338.349ZM281.809 338.961V332.364H283.456C285.49 332.364 286.57 333.543 286.57 335.64C286.57 337.737 285.49 338.961 283.501 338.961H281.809ZM282.646 338.277H283.393C284.941 338.277 285.715 337.314 285.715 335.64C285.715 333.966 284.941 333.048 283.393 333.048H282.646V338.277ZM287.502 338.961V338.484C289.437 336.558 290.517 335.397 290.517 334.344C290.517 333.615 290.13 333.093 289.311 333.093C288.771 333.093 288.303 333.435 287.934 333.867L287.457 333.399C287.997 332.814 288.573 332.436 289.41 332.436C290.589 332.436 291.327 333.174 291.327 334.317C291.327 335.523 290.22 336.72 288.699 338.322C289.041 338.286 289.446 338.259 289.779 338.259H291.642V338.961H287.502Z" fill="#484F51"/>
<rect x="381" y="364" width="51.07" height="17.1769" rx="4" fill="#D9D9D9"/>
<path d="M399.081 376.087C397.353 376.087 396.111 374.809 396.111 372.667C396.111 370.543 397.389 369.247 399.135 369.247C400.044 369.247 400.647 369.661 401.034 370.057L400.575 370.597C400.242 370.255 399.819 369.976 399.153 369.976C397.821 369.976 396.966 371.002 396.966 372.649C396.966 374.314 397.749 375.349 399.162 375.349C399.639 375.349 400.098 375.205 400.35 374.971V373.243H398.955V372.55H401.124V375.322C400.692 375.763 399.972 376.087 399.081 376.087ZM402.694 375.961V369.364H404.575C406.051 369.364 407.05 369.859 407.05 371.308C407.05 372.694 406.06 373.342 404.611 373.342H403.531V375.961H402.694ZM403.531 372.667H404.512C405.664 372.667 406.222 372.244 406.222 371.308C406.222 370.345 405.637 370.048 404.467 370.048H403.531V372.667ZM407.379 375.961L409.305 372.559L407.496 369.364H408.423L409.314 371.056C409.485 371.362 409.629 371.632 409.836 372.019H409.872C410.052 371.632 410.178 371.362 410.34 371.056L411.231 369.364H412.104L410.304 372.595L412.23 375.961H411.312L410.34 374.179C410.169 373.855 409.989 373.522 409.764 373.117H409.728C409.539 373.522 409.368 373.855 409.206 374.179L408.252 375.961H407.379ZM413.177 375.961V375.277H414.644V370.552H413.465V370.021C414.059 369.913 414.482 369.76 414.833 369.553H415.463V375.277H416.795V375.961H413.177Z" fill="#484F51"/>
<path d="M263.604 117.939H267.06V118.635H263.112L263.604 117.939ZM266.784 117.939H266.976L267.156 117.903L267.684 118.215C266.616 120.447 264.216 121.539 261.576 122.055C261.492 121.839 261.264 121.455 261.108 121.275C263.652 120.867 265.908 119.931 266.784 118.083V117.939ZM263.52 118.419C264.408 119.907 266.34 120.903 268.668 121.251C268.464 121.443 268.224 121.803 268.104 122.043C265.716 121.575 263.784 120.435 262.764 118.659L263.52 118.419ZM263.34 115.743V116.559H266.844V115.743H263.34ZM263.34 114.363V115.155H266.844V114.363H263.34ZM262.512 113.739H267.696V117.171H262.512V113.739ZM262.86 112.203H268.428V112.971H262.86V112.203ZM263.136 110.991L264 111.135C263.544 112.251 262.908 113.523 261.924 114.555C261.768 114.375 261.48 114.135 261.276 114.039C262.188 113.127 262.812 111.927 263.136 110.991ZM264.06 116.907L264.948 117.075C264.264 118.131 263.232 119.199 261.768 120.039C261.636 119.847 261.36 119.583 261.168 119.451C262.548 118.731 263.532 117.747 264.06 116.907ZM259.14 116.883L259.956 115.899V122.043H259.14V116.883ZM257.616 113.283H260.88V114.075H257.616V113.283ZM259.104 111.063H259.92V113.715H259.104V111.063ZM259.848 115.959C260.16 116.295 261.3 117.699 261.552 118.047L261.024 118.659C260.712 118.095 259.764 116.799 259.392 116.343L259.848 115.959ZM260.568 113.283H260.736L260.892 113.235L261.36 113.535C260.64 115.731 259.176 117.855 257.796 119.055C257.7 118.839 257.472 118.443 257.328 118.287C258.624 117.243 259.98 115.299 260.568 113.463V113.283ZM261.252 115.467L261.78 115.851C261.456 116.367 261.072 116.943 260.76 117.315L260.34 116.991C260.628 116.583 261.036 115.911 261.252 115.467ZM271.956 114.915H278.016V115.719H271.956V114.915ZM271.74 120.747H278.172V121.551H271.74V120.747ZM271.332 117.231H278.676V122.043H277.764V118.047H272.208V122.043H271.332V117.231ZM274.944 111.915C273.96 113.379 271.992 115.083 269.94 116.199C269.82 115.995 269.58 115.671 269.376 115.479C271.488 114.411 273.492 112.575 274.44 111.027H275.352C276.648 112.815 278.748 114.483 280.668 115.335C280.44 115.551 280.224 115.863 280.068 116.127C278.184 115.143 276.072 113.451 274.944 111.915ZM283.98 111.039L284.832 111.291C284.136 113.319 283.044 115.359 281.868 116.715C281.772 116.511 281.508 116.043 281.34 115.827C282.408 114.651 283.392 112.851 283.98 111.039ZM282.9 114.135L283.74 113.283L283.752 113.295V122.019H282.9V114.135ZM287.94 111.039H288.816V121.971H287.94V111.039ZM284.556 113.415H292.416V114.279H284.556V113.415ZM285.96 118.983H290.76V119.799H285.96V118.983ZM289.248 113.859C289.932 116.007 291.252 118.239 292.656 119.367C292.44 119.523 292.14 119.835 291.972 120.075C290.568 118.791 289.284 116.403 288.576 114.063L289.248 113.859ZM287.568 113.811L288.228 114.015C287.484 116.415 286.176 118.791 284.724 120.111C284.592 119.883 284.292 119.571 284.088 119.427C285.492 118.287 286.86 116.007 287.568 113.811ZM294.864 121.071V112.299H296.016V121.071H294.864ZM298.404 121.071V112.299H299.544V121.071H298.404ZM301.932 121.071V112.299H303.084V121.071H301.932Z" fill="#484F51"/>
<rect x="352.559" y="104.962" width="87.7731" height="23.3333" fill="#D9D9D9"/>
<rect x="352.832" y="105.462" width="86.9603" height="99" stroke="#C5C5C5"/>
<rect x="370.391" y="154.962" width="51.07" height="17.1769" rx="4" fill="#D9D9D9"/>
<path d="M386.228 167.049C384.581 167.049 383.357 165.771 383.357 163.629C383.357 161.505 384.608 160.209 386.282 160.209C387.083 160.209 387.704 160.596 388.091 161.019L387.632 161.559C387.29 161.19 386.849 160.938 386.291 160.938C385.04 160.938 384.212 161.964 384.212 163.611C384.212 165.276 385.004 166.311 386.264 166.311C386.885 166.311 387.371 166.041 387.794 165.573L388.244 166.095C387.722 166.707 387.083 167.049 386.228 167.049ZM391.606 167.049C389.941 167.049 388.789 165.717 388.789 163.602C388.789 161.487 389.941 160.209 391.606 160.209C393.262 160.209 394.414 161.496 394.414 163.602C394.414 165.717 393.262 167.049 391.606 167.049ZM391.606 166.311C392.785 166.311 393.568 165.249 393.568 163.602C393.568 161.955 392.785 160.938 391.606 160.938C390.418 160.938 389.644 161.955 389.644 163.602C389.644 165.249 390.418 166.311 391.606 166.311ZM394.906 166.923L396.832 163.521L395.023 160.326H395.95L396.841 162.018C397.012 162.324 397.156 162.594 397.363 162.981H397.399C397.579 162.594 397.705 162.324 397.867 162.018L398.758 160.326H399.631L397.831 163.557L399.757 166.923H398.839L397.867 165.141C397.696 164.817 397.516 164.484 397.291 164.079H397.255C397.066 164.484 396.895 164.817 396.733 165.141L395.779 166.923H394.906ZM402.324 165.204L403.017 165.465C402.441 166.203 401.586 166.968 400.857 167.463C400.722 167.328 400.434 167.103 400.254 166.995C401.01 166.563 401.82 165.87 402.324 165.204ZM405.681 165.546L406.23 165.168C406.995 165.717 407.985 166.509 408.48 167.022L407.886 167.445C407.427 166.932 406.464 166.113 405.681 165.546ZM401.073 161.964L401.541 161.55C402.351 162 403.368 162.702 403.863 163.215L403.368 163.701C402.9 163.188 401.901 162.45 401.073 161.964ZM405.78 163.116L406.32 162.765C407.112 163.395 408.075 164.304 408.543 164.925L407.94 165.321C407.517 164.709 406.572 163.773 405.78 163.116ZM404.034 164.376H404.745V167.652H404.034V164.376ZM400.407 164.115C402.153 164.106 404.979 164.052 407.589 163.998L407.553 164.601C404.988 164.691 402.261 164.754 400.479 164.79L400.407 164.115ZM405.915 160.848L406.563 161.19C405.465 162.36 403.908 163.719 402.72 164.565L402.198 164.223C403.404 163.377 404.97 161.946 405.915 160.848ZM403.584 160.236L404.232 160.569C403.701 161.217 402.99 161.964 402.441 162.441L401.91 162.144C402.45 161.658 403.17 160.839 403.584 160.236ZM407.337 159.498L407.832 160.074C406.005 160.425 403.197 160.614 400.857 160.668C400.839 160.497 400.758 160.227 400.695 160.065C403.017 159.993 405.789 159.804 407.337 159.498Z" fill="#484F51"/>
<path d="M378.936 117.939H382.392V118.635H378.444L378.936 117.939ZM382.116 117.939H382.308L382.488 117.903L383.016 118.215C381.948 120.447 379.548 121.539 376.908 122.055C376.824 121.839 376.596 121.455 376.44 121.275C378.984 120.867 381.24 119.931 382.116 118.083V117.939ZM378.852 118.419C379.74 119.907 381.672 120.903 384 121.251C383.796 121.443 383.556 121.803 383.436 122.043C381.048 121.575 379.116 120.435 378.096 118.659L378.852 118.419ZM378.672 115.743V116.559H382.176V115.743H378.672ZM378.672 114.363V115.155H382.176V114.363H378.672ZM377.844 113.739H383.028V117.171H377.844V113.739ZM378.192 112.203H383.76V112.971H378.192V112.203ZM378.468 110.991L379.332 111.135C378.876 112.251 378.24 113.523 377.256 114.555C377.1 114.375 376.812 114.135 376.608 114.039C377.52 113.127 378.144 111.927 378.468 110.991ZM379.392 116.907L380.28 117.075C379.596 118.131 378.564 119.199 377.1 120.039C376.968 119.847 376.692 119.583 376.5 119.451C377.88 118.731 378.864 117.747 379.392 116.907ZM374.472 116.883L375.288 115.899V122.043H374.472V116.883ZM372.948 113.283H376.212V114.075H372.948V113.283ZM374.436 111.063H375.252V113.715H374.436V111.063ZM375.18 115.959C375.492 116.295 376.632 117.699 376.884 118.047L376.356 118.659C376.044 118.095 375.096 116.799 374.724 116.343L375.18 115.959ZM375.9 113.283H376.068L376.224 113.235L376.692 113.535C375.972 115.731 374.508 117.855 373.128 119.055C373.032 118.839 372.804 118.443 372.66 118.287C373.956 117.243 375.312 115.299 375.9 113.463V113.283ZM376.584 115.467L377.112 115.851C376.788 116.367 376.404 116.943 376.092 117.315L375.672 116.991C375.96 116.583 376.368 115.911 376.584 115.467ZM387.288 114.915H393.348V115.719H387.288V114.915ZM387.072 120.747H393.504V121.551H387.072V120.747ZM386.664 117.231H394.008V122.043H393.096V118.047H387.54V122.043H386.664V117.231ZM390.276 111.915C389.292 113.379 387.324 115.083 385.272 116.199C385.152 115.995 384.912 115.671 384.708 115.479C386.82 114.411 388.824 112.575 389.772 111.027H390.684C391.98 112.815 394.08 114.483 396 115.335C395.772 115.551 395.556 115.863 395.4 116.127C393.516 115.143 391.404 113.451 390.276 111.915ZM399.312 111.039L400.164 111.291C399.468 113.319 398.376 115.359 397.2 116.715C397.104 116.511 396.84 116.043 396.672 115.827C397.74 114.651 398.724 112.851 399.312 111.039ZM398.232 114.135L399.072 113.283L399.084 113.295V122.019H398.232V114.135ZM403.272 111.039H404.148V121.971H403.272V111.039ZM399.888 113.415H407.748V114.279H399.888V113.415ZM401.292 118.983H406.092V119.799H401.292V118.983ZM404.58 113.859C405.264 116.007 406.584 118.239 407.988 119.367C407.772 119.523 407.472 119.835 407.304 120.075C405.9 118.791 404.616 116.403 403.908 114.063L404.58 113.859ZM402.9 113.811L403.56 114.015C402.816 116.415 401.508 118.791 400.056 120.111C399.924 119.883 399.624 119.571 399.42 119.427C400.824 118.287 402.192 116.007 402.9 113.811ZM410.28 121.071V112.299H411.432V121.071H410.28ZM415.416 121.071L412.62 112.299H413.832L415.236 117.015C415.536 118.059 415.752 118.887 416.076 119.919H416.124C416.448 118.887 416.664 118.059 416.976 117.015L418.368 112.299H419.532L416.748 121.071H415.416Z" fill="#484F51"/>
<rect x="467.441" y="104.962" width="87.7731" height="23.3333" fill="#D9D9D9"/>
<rect x="467.715" y="105.462" width="86.9603" height="99" stroke="#C5C5C5"/>
<rect x="485.273" y="154.962" width="51.07" height="17.1769" rx="4" fill="#D9D9D9"/>
<path d="M495.794 166.923L498.026 160.326H498.962L501.194 166.923H500.321L499.16 163.233C498.926 162.495 498.719 161.775 498.503 161.01H498.467C498.251 161.775 498.044 162.495 497.801 163.233L496.64 166.923H495.794ZM496.964 164.907V164.25H500.006V164.907H496.964ZM502.939 166.923V161.028H500.95V160.326H505.774V161.028H503.785V166.923H502.939ZM506.959 166.923V160.326H508.84C510.316 160.326 511.315 160.821 511.315 162.27C511.315 163.656 510.325 164.304 508.876 164.304H507.796V166.923H506.959ZM507.796 163.629H508.777C509.929 163.629 510.487 163.206 510.487 162.27C510.487 161.307 509.902 161.01 508.732 161.01H507.796V163.629ZM514.103 167.049C513.077 167.049 512.447 166.617 511.997 166.167L512.411 165.627C512.78 166.014 513.266 166.365 514.022 166.365C514.805 166.365 515.426 165.798 515.426 164.898C515.426 164.016 514.886 163.485 514.067 163.485C513.626 163.485 513.347 163.629 512.969 163.881L512.528 163.602L512.735 160.515H515.948V161.217H513.455L513.284 163.125C513.581 162.963 513.878 162.864 514.274 162.864C515.372 162.864 516.263 163.485 516.263 164.871C516.263 166.266 515.21 167.049 514.103 167.049ZM519.158 165.204L519.851 165.465C519.275 166.203 518.42 166.968 517.691 167.463C517.556 167.328 517.268 167.103 517.088 166.995C517.844 166.563 518.654 165.87 519.158 165.204ZM522.515 165.546L523.064 165.168C523.829 165.717 524.819 166.509 525.314 167.022L524.72 167.445C524.261 166.932 523.298 166.113 522.515 165.546ZM517.907 161.964L518.375 161.55C519.185 162 520.202 162.702 520.697 163.215L520.202 163.701C519.734 163.188 518.735 162.45 517.907 161.964ZM522.614 163.116L523.154 162.765C523.946 163.395 524.909 164.304 525.377 164.925L524.774 165.321C524.351 164.709 523.406 163.773 522.614 163.116ZM520.868 164.376H521.579V167.652H520.868V164.376ZM517.241 164.115C518.987 164.106 521.813 164.052 524.423 163.998L524.387 164.601C521.822 164.691 519.095 164.754 517.313 164.79L517.241 164.115ZM522.749 160.848L523.397 161.19C522.299 162.36 520.742 163.719 519.554 164.565L519.032 164.223C520.238 163.377 521.804 161.946 522.749 160.848ZM520.418 160.236L521.066 160.569C520.535 161.217 519.824 161.964 519.275 162.441L518.744 162.144C519.284 161.658 520.004 160.839 520.418 160.236ZM524.171 159.498L524.666 160.074C522.839 160.425 520.031 160.614 517.691 160.668C517.673 160.497 517.592 160.227 517.529 160.065C519.851 159.993 522.623 159.804 524.171 159.498Z" fill="#484F51"/>
<path d="M493.819 117.939H497.275V118.635H493.327L493.819 117.939ZM496.999 117.939H497.191L497.371 117.903L497.899 118.215C496.831 120.447 494.431 121.539 491.791 122.055C491.707 121.839 491.479 121.455 491.323 121.275C493.867 120.867 496.123 119.931 496.999 118.083V117.939ZM493.735 118.419C494.623 119.907 496.555 120.903 498.883 121.251C498.679 121.443 498.439 121.803 498.319 122.043C495.931 121.575 493.999 120.435 492.979 118.659L493.735 118.419ZM493.555 115.743V116.559H497.059V115.743H493.555ZM493.555 114.363V115.155H497.059V114.363H493.555ZM492.727 113.739H497.911V117.171H492.727V113.739ZM493.075 112.203H498.643V112.971H493.075V112.203ZM493.351 110.991L494.215 111.135C493.759 112.251 493.123 113.523 492.139 114.555C491.983 114.375 491.695 114.135 491.491 114.039C492.403 113.127 493.027 111.927 493.351 110.991ZM494.275 116.907L495.163 117.075C494.479 118.131 493.447 119.199 491.983 120.039C491.851 119.847 491.575 119.583 491.383 119.451C492.763 118.731 493.747 117.747 494.275 116.907ZM489.355 116.883L490.171 115.899V122.043H489.355V116.883ZM487.831 113.283H491.095V114.075H487.831V113.283ZM489.319 111.063H490.135V113.715H489.319V111.063ZM490.063 115.959C490.375 116.295 491.515 117.699 491.767 118.047L491.239 118.659C490.927 118.095 489.979 116.799 489.607 116.343L490.063 115.959ZM490.783 113.283H490.951L491.107 113.235L491.575 113.535C490.855 115.731 489.391 117.855 488.011 119.055C487.915 118.839 487.687 118.443 487.543 118.287C488.839 117.243 490.195 115.299 490.783 113.463V113.283ZM491.467 115.467L491.995 115.851C491.671 116.367 491.287 116.943 490.975 117.315L490.555 116.991C490.843 116.583 491.251 115.911 491.467 115.467ZM502.171 114.915H508.231V115.719H502.171V114.915ZM501.955 120.747H508.387V121.551H501.955V120.747ZM501.547 117.231H508.891V122.043H507.979V118.047H502.423V122.043H501.547V117.231ZM505.159 111.915C504.175 113.379 502.207 115.083 500.155 116.199C500.035 115.995 499.795 115.671 499.591 115.479C501.703 114.411 503.707 112.575 504.655 111.027H505.567C506.863 112.815 508.963 114.483 510.883 115.335C510.655 115.551 510.439 115.863 510.283 116.127C508.399 115.143 506.287 113.451 505.159 111.915ZM514.195 111.039L515.047 111.291C514.351 113.319 513.259 115.359 512.083 116.715C511.987 116.511 511.723 116.043 511.555 115.827C512.623 114.651 513.607 112.851 514.195 111.039ZM513.115 114.135L513.955 113.283L513.967 113.295V122.019H513.115V114.135ZM518.155 111.039H519.031V121.971H518.155V111.039ZM514.771 113.415H522.631V114.279H514.771V113.415ZM516.175 118.983H520.975V119.799H516.175V118.983ZM519.463 113.859C520.147 116.007 521.467 118.239 522.871 119.367C522.655 119.523 522.355 119.835 522.187 120.075C520.783 118.791 519.499 116.403 518.791 114.063L519.463 113.859ZM517.783 113.811L518.443 114.015C517.699 116.415 516.391 118.791 514.939 120.111C514.807 119.883 514.507 119.571 514.303 119.427C515.707 118.287 517.075 116.007 517.783 113.811ZM528.535 121.071L525.739 112.299H526.951L528.355 117.015C528.655 118.059 528.871 118.887 529.195 119.919H529.243C529.579 118.887 529.783 118.059 530.095 117.015L531.487 112.299H532.651L529.867 121.071H528.535Z" fill="#484F51"/>
<path d="M260 94V93.5H260.5V94H260ZM260.354 105.354C260.158 105.549 259.842 105.549 259.646 105.354L256.464 102.172C256.269 101.976 256.269 101.66 256.464 101.464C256.66 101.269 256.976 101.269 257.172 101.464L260 104.293L262.828 101.464C263.024 101.269 263.34 101.269 263.536 101.464C263.731 101.66 263.731 101.976 263.536 102.172L260.354 105.354ZM260.5 94V105H259.5V94H260.5ZM260 94.5L76 94.5V93.5L260 93.5V94.5Z" fill="#484F51"/>
<path d="M377 94V93.5H377.5V94H377ZM377.354 105.354C377.158 105.549 376.842 105.549 376.646 105.354L373.464 102.172C373.269 101.976 373.269 101.66 373.464 101.464C373.66 101.269 373.976 101.269 374.172 101.464L377 104.293L379.828 101.464C380.024 101.269 380.34 101.269 380.536 101.464C380.731 101.66 380.731 101.976 380.536 102.172L377.354 105.354ZM377.5 94V105H376.5V94H377.5ZM377 94.5L299 94.5V93.5L377 93.5V94.5Z" fill="#484F51"/>
<path d="M8.583 50.187C9.753 50.34 12.165 50.844 13.299 51.24L13.011 51.933C11.922 51.528 9.564 51.015 8.322 50.853L8.583 50.187ZM8.169 52.563C9.402 52.779 11.589 53.238 12.705 53.643L12.426 54.336C11.382 53.931 9.177 53.436 7.899 53.238L8.169 52.563ZM7.683 55.182C9.186 55.425 11.805 56.037 13.038 56.532L12.723 57.225C11.535 56.703 8.853 56.1 7.404 55.875L7.683 55.182ZM18.024 56.208C18.024 55.704 18.024 51.726 18.024 50.979C18.024 50.718 18.006 50.322 17.961 50.034H18.843C18.807 50.313 18.78 50.7 18.78 50.979C18.78 52.374 18.789 55.785 18.789 56.208C18.789 56.496 18.807 56.982 18.843 57.279H17.97C18.015 56.991 18.024 56.541 18.024 56.208ZM18.618 52.401C19.806 52.743 21.624 53.436 22.623 53.922L22.308 54.687C21.282 54.138 19.599 53.499 18.618 53.193V52.401ZM25.539 50.835C25.845 50.862 26.232 50.889 26.529 50.889H30.957C31.182 50.889 31.443 50.88 31.623 50.871C31.614 51.069 31.605 51.357 31.605 51.564V56.217C31.605 56.541 31.632 56.946 31.641 57.081H30.831C30.831 56.946 30.849 56.613 30.849 56.289V51.6H26.529C26.196 51.6 25.755 51.618 25.539 51.636V50.835ZM25.431 55.803C25.656 55.821 26.052 55.848 26.421 55.848H31.254V56.586H26.448C26.079 56.586 25.674 56.595 25.431 56.622V55.803ZM35.043 50.412C35.673 50.835 36.834 51.771 37.329 52.266L36.771 52.842C36.312 52.374 35.196 51.402 34.521 50.961L35.043 50.412ZM34.269 56.442C35.835 56.208 37.005 55.659 37.86 55.128C39.255 54.255 40.344 52.923 40.866 51.807L41.298 52.581C40.686 53.697 39.642 54.921 38.283 55.776C37.374 56.343 36.24 56.901 34.737 57.18L34.269 56.442ZM47.904 50.529C48.129 50.853 48.516 51.456 48.723 51.888L48.21 52.122C47.985 51.645 47.697 51.15 47.4 50.745L47.904 50.529ZM48.984 50.079C49.227 50.394 49.623 50.988 49.83 51.411L49.326 51.663C49.092 51.186 48.795 50.709 48.498 50.313L48.984 50.079ZM44.745 56.325C44.745 55.83 44.745 51.852 44.745 51.096C44.745 50.835 44.718 50.439 44.673 50.16H45.555C45.528 50.43 45.492 50.826 45.492 51.096C45.492 52.5 45.501 55.902 45.501 56.325C45.501 56.613 45.519 57.099 45.555 57.396H44.682C44.727 57.108 44.745 56.667 44.745 56.325ZM45.33 52.518C46.527 52.86 48.336 53.553 49.335 54.048L49.02 54.804C47.994 54.255 46.311 53.616 45.33 53.31V52.518ZM57.975 50.178C57.957 50.394 57.948 50.655 57.948 50.961C57.948 51.312 57.948 52.077 57.948 52.41C57.948 54.579 57.66 55.29 57.003 56.055C56.427 56.757 55.527 57.153 54.87 57.378L54.276 56.757C55.104 56.541 55.869 56.19 56.427 55.551C57.066 54.813 57.183 54.075 57.183 52.383C57.183 52.032 57.183 51.276 57.183 50.961C57.183 50.655 57.156 50.394 57.129 50.178H57.975ZM53.799 50.25C53.781 50.421 53.772 50.682 53.772 50.889C53.772 51.159 53.772 53.517 53.772 53.895C53.772 54.129 53.781 54.426 53.799 54.588H52.98C52.998 54.444 53.016 54.156 53.016 53.895C53.016 53.508 53.016 51.159 53.016 50.889C53.016 50.736 53.007 50.421 52.98 50.25H53.799ZM68.379 50.925C68.307 51.006 68.199 51.141 68.136 51.24C67.776 51.852 66.921 53.013 65.895 53.724L65.292 53.247C66.129 52.77 66.975 51.798 67.263 51.24C66.633 51.24 62.565 51.24 62.133 51.24C61.8 51.24 61.467 51.258 61.116 51.285V50.475C61.431 50.52 61.8 50.556 62.133 50.556C62.565 50.556 66.768 50.556 67.308 50.556C67.479 50.556 67.803 50.529 67.929 50.493L68.379 50.925ZM64.779 52.104C64.779 54.543 64.563 56.19 62.268 57.342L61.611 56.802C61.854 56.721 62.169 56.568 62.421 56.397C63.807 55.542 64.005 54.264 64.005 52.761C64.005 52.545 64.005 52.347 63.969 52.104H64.779ZM73.059 53.094L73.563 52.734C74.481 53.526 75.651 54.651 76.227 55.353L75.669 55.785C75.129 55.074 73.977 53.922 73.059 53.094ZM73.158 49.44H73.851V51.204C73.851 52.644 73.59 54.543 71.268 55.902C71.178 55.758 70.944 55.515 70.791 55.398C73.041 54.183 73.158 52.446 73.158 51.204V49.44ZM69.882 50.979H76.767V51.645H70.557V57.738H69.882V50.979ZM76.461 50.979H77.127V56.829C77.127 57.27 77.019 57.486 76.713 57.603C76.398 57.711 75.84 57.72 75.03 57.72C75.003 57.531 74.895 57.216 74.805 57.027C75.444 57.054 76.056 57.054 76.236 57.045C76.407 57.036 76.461 56.982 76.461 56.829V50.979ZM81.42 50.187H86.523V50.754H81.42V50.187ZM81.42 55.092H86.487V55.677H81.42V55.092ZM83.571 54.408H84.228C84.075 56.172 83.598 57.207 81.555 57.738C81.483 57.585 81.321 57.351 81.195 57.225C83.067 56.784 83.445 55.92 83.571 54.408ZM84.372 55.317C84.705 56.262 85.47 56.937 86.604 57.198C86.451 57.324 86.271 57.567 86.181 57.747C84.975 57.396 84.192 56.586 83.814 55.452L84.372 55.317ZM82.653 49.449H83.283V51.42H82.653V49.449ZM84.615 49.458H85.236V51.42H84.615V49.458ZM82.536 53.283V53.931H85.362V53.283H82.536ZM82.536 52.176V52.815H85.362V52.176H82.536ZM81.924 51.69H86.001V54.426H81.924V51.69ZM79.215 49.845H80.79V50.466H79.215V49.845ZM78.873 49.845H79.449V53.058C79.449 54.435 79.368 56.397 78.774 57.72C78.666 57.621 78.405 57.486 78.261 57.432C78.828 56.163 78.873 54.372 78.873 53.058V49.845ZM80.538 49.845H81.096V56.928C81.096 57.252 81.033 57.432 80.835 57.54C80.628 57.63 80.322 57.648 79.809 57.648C79.791 57.495 79.719 57.225 79.638 57.063C79.989 57.072 80.304 57.072 80.394 57.072C80.502 57.072 80.538 57.036 80.538 56.919V49.845ZM79.224 51.915H80.79V52.527H79.224V51.915ZM79.206 54.021H80.781V54.642H79.206V54.021Z" fill="#484F51"/>
<path d="M117.501 88.126C115.854 88.126 114.63 86.848 114.63 84.706C114.63 82.582 115.881 81.286 117.555 81.286C118.356 81.286 118.977 81.673 119.364 82.096L118.905 82.636C118.563 82.267 118.122 82.015 117.564 82.015C116.313 82.015 115.485 83.041 115.485 84.688C115.485 86.353 116.277 87.388 117.537 87.388C118.158 87.388 118.644 87.118 119.067 86.65L119.517 87.172C118.995 87.784 118.356 88.126 117.501 88.126ZM122.574 88.126C121.368 88.126 120.306 87.181 120.306 85.57C120.306 83.932 121.368 82.996 122.574 82.996C123.771 82.996 124.833 83.932 124.833 85.57C124.833 87.181 123.771 88.126 122.574 88.126ZM122.574 87.442C123.42 87.442 123.987 86.686 123.987 85.57C123.987 84.436 123.42 83.68 122.574 83.68C121.719 83.68 121.152 84.436 121.152 85.57C121.152 86.686 121.719 87.442 122.574 87.442ZM128.644 88.126C126.979 88.126 125.827 86.794 125.827 84.679C125.827 82.564 126.979 81.286 128.644 81.286C130.3 81.286 131.452 82.573 131.452 84.679C131.452 86.794 130.3 88.126 128.644 88.126ZM128.644 87.433C129.823 87.433 130.606 86.371 130.606 84.679C130.606 83.032 129.823 82.015 128.644 82.015C127.456 82.015 126.682 83.032 126.682 84.679C126.682 86.371 127.456 87.433 128.644 87.433ZM130.66 89.665C129.4 89.665 128.545 88.945 128.194 87.982L129.058 87.919C129.319 88.612 129.967 88.963 130.75 88.963C131.047 88.963 131.263 88.927 131.443 88.864L131.605 89.512C131.398 89.593 131.056 89.665 130.66 89.665ZM132.885 88V81.403H133.722V84.166H136.8V81.403H137.628V88H136.8V84.895H133.722V88H132.885ZM138.929 88V87.523C140.864 85.597 141.944 84.436 141.944 83.383C141.944 82.654 141.557 82.132 140.738 82.132C140.198 82.132 139.73 82.474 139.361 82.906L138.884 82.438C139.424 81.853 140 81.475 140.837 81.475C142.016 81.475 142.754 82.213 142.754 83.356C142.754 84.562 141.647 85.759 140.126 87.361C140.468 87.325 140.873 87.298 141.206 87.298H143.069V88H138.929ZM149.78 84.58C149.78 82.825 150.491 81.403 151.571 80.305L152.111 80.584C151.067 81.655 150.428 82.978 150.428 84.58C150.428 86.191 151.067 87.514 152.111 88.585L151.571 88.864C150.491 87.766 149.78 86.344 149.78 84.58ZM159.572 82.222C159.536 82.312 159.509 82.447 159.5 82.519C159.401 83.428 158.978 86.119 158.852 86.911H158.042C158.195 86.128 158.627 83.392 158.645 82.726C157.862 82.726 155.531 82.726 155.108 82.726C154.766 82.726 154.523 82.735 154.244 82.762V81.961C154.514 81.988 154.802 82.015 155.099 82.015C155.522 82.015 157.781 82.015 158.411 82.015C158.591 82.015 158.87 81.979 158.969 81.934L159.572 82.222ZM153.236 86.668C153.497 86.713 153.776 86.722 154.028 86.722H160.094C160.373 86.722 160.616 86.695 160.85 86.668V87.496C160.607 87.46 160.283 87.451 160.094 87.451H154.028C153.776 87.451 153.506 87.469 153.236 87.496V86.668ZM168.077 80.953C168.302 81.277 168.626 81.817 168.806 82.186L168.32 82.402C168.14 82.042 167.843 81.502 167.6 81.16L168.077 80.953ZM169.058 80.593C169.301 80.926 169.643 81.484 169.814 81.817L169.328 82.033C169.139 81.646 168.842 81.133 168.59 80.8L169.058 80.593ZM164.036 81.25C164.009 81.466 163.982 81.727 163.982 81.979C163.982 82.465 163.982 86.083 163.982 86.731C163.982 87.199 164.18 87.316 164.612 87.397C164.9 87.451 165.359 87.469 165.8 87.469C166.754 87.469 168.131 87.379 168.887 87.181V88.009C168.104 88.126 166.754 88.189 165.773 88.189C165.233 88.189 164.702 88.171 164.324 88.108C163.64 87.982 163.253 87.667 163.253 86.929C163.253 86.065 163.253 82.465 163.253 81.979C163.253 81.763 163.235 81.466 163.199 81.25H164.036ZM163.649 84.094C164.738 83.86 166.367 83.365 167.411 82.924C167.681 82.798 167.942 82.672 168.203 82.51L168.518 83.23C168.257 83.338 167.933 83.482 167.663 83.59C166.547 84.04 164.765 84.562 163.658 84.841L163.649 84.094ZM174.044 81.637C173.999 81.412 173.945 81.214 173.882 81.025L174.683 80.89C174.701 81.052 174.737 81.313 174.773 81.511C174.827 81.907 175.817 86.848 175.943 87.442C176.006 87.694 176.078 88 176.168 88.261L175.34 88.414C175.295 88.108 175.268 87.829 175.205 87.568C175.115 87.001 174.152 82.105 174.044 81.637ZM171.506 82.942C171.731 82.924 171.974 82.906 172.262 82.879C173.072 82.789 176.177 82.294 177.032 82.123C177.293 82.078 177.527 82.024 177.68 81.979L177.824 82.735C177.689 82.744 177.419 82.789 177.176 82.825C176.249 82.969 173.18 83.455 172.388 83.59C172.145 83.635 171.929 83.68 171.668 83.743L171.506 82.942ZM171.479 85.534C171.695 85.525 172.037 85.489 172.271 85.453C173.234 85.327 176.582 84.778 177.662 84.58C178.004 84.517 178.265 84.454 178.454 84.4L178.607 85.156C178.418 85.174 178.13 85.228 177.797 85.282C176.6 85.462 173.351 85.993 172.442 86.155C172.091 86.218 171.839 86.272 171.641 86.326L171.479 85.534ZM186.101 81.529C186.002 81.772 185.894 82.096 185.813 82.321C185.471 83.293 184.931 84.616 184.166 85.588C183.356 86.623 182.069 87.622 180.773 88.153L180.143 87.505C181.493 87.037 182.735 86.128 183.554 85.111C184.382 84.067 184.994 82.591 185.246 81.304L186.101 81.529ZM188.801 84.103C189.08 84.13 189.548 84.157 190.061 84.157C190.718 84.157 194.327 84.157 194.993 84.157C195.443 84.157 195.758 84.121 195.965 84.103V84.985C195.776 84.976 195.398 84.949 195.002 84.949C194.318 84.949 190.727 84.949 190.061 84.949C189.566 84.949 189.089 84.967 188.801 84.985V84.103ZM201.599 87.811C201.635 87.676 201.662 87.487 201.662 87.307C201.662 86.893 201.662 82.483 201.662 81.916C201.662 81.574 201.617 81.322 201.617 81.25H202.445C202.436 81.322 202.4 81.583 202.4 81.925C202.4 82.483 202.4 86.839 202.4 87.109C203.237 86.731 204.344 85.912 205.028 84.895L205.46 85.516C204.677 86.569 203.435 87.487 202.391 88.009C202.238 88.081 202.148 88.162 202.076 88.207L201.599 87.811ZM197.477 87.775C198.242 87.235 198.773 86.434 199.043 85.561C199.313 84.733 199.313 82.942 199.313 81.934C199.313 81.673 199.295 81.475 199.25 81.286H200.078C200.069 81.385 200.033 81.664 200.033 81.925C200.033 82.924 200.006 84.859 199.763 85.759C199.493 86.722 198.917 87.595 198.161 88.225L197.477 87.775ZM208.628 84.58C208.628 86.344 207.917 87.766 206.837 88.864L206.297 88.585C207.341 87.514 207.98 86.191 207.98 84.58C207.98 82.978 207.341 81.655 206.297 80.584L206.837 80.305C207.917 81.403 208.628 82.825 208.628 84.58Z" fill="#484F51"/>
<path d="M17.0382 252V245.403H17.8932L20.2962 249.561L21.0072 250.929H21.0522C20.9982 250.263 20.9352 249.516 20.9352 248.832V245.403H21.7362V252H20.8722L18.4782 247.842L17.7672 246.483H17.7222C17.7672 247.149 17.8302 247.842 17.8302 248.544V252H17.0382ZM22.6691 252L24.9011 245.403H25.8371L28.0691 252H27.1961L26.0351 248.31C25.8011 247.572 25.5941 246.852 25.3781 246.087H25.3421C25.1261 246.852 24.9191 247.572 24.6761 248.31L23.5151 252H22.6691ZM23.8391 249.984V249.327H26.8811V249.984H23.8391ZM29.0177 252V245.403H30.6647C32.6987 245.403 33.7787 246.582 33.7787 248.679C33.7787 250.776 32.6987 252 30.7097 252H29.0177ZM29.8547 251.316H30.6017C32.1497 251.316 32.9237 250.353 32.9237 248.679C32.9237 247.005 32.1497 246.087 30.6017 246.087H29.8547V251.316ZM35.214 252V245.403H36.051V248.166H39.129V245.403H39.957V252H39.129V248.895H36.051V252H35.214Z" fill="#484F51"/>
<path d="M154.513 252V245.403H158.311V246.105H155.35V248.346H157.861V249.039H155.35V252H154.513ZM158.202 252L160.434 245.403H161.37L163.602 252H162.729L161.568 248.31C161.334 247.572 161.127 246.852 160.911 246.087H160.875C160.659 246.852 160.452 247.572 160.209 248.31L159.048 252H158.202ZM159.372 249.984V249.327H162.414V249.984H159.372ZM164.55 252V245.403H166.197C168.231 245.403 169.311 246.582 169.311 248.679C169.311 250.776 168.231 252 166.242 252H164.55ZM165.387 251.316H166.134C167.682 251.316 168.456 250.353 168.456 248.679C168.456 247.005 167.682 246.087 166.134 246.087H165.387V251.316ZM170.747 252V245.403H171.584V248.166H174.662V245.403H175.49V252H174.662V248.895H171.584V252H170.747ZM176.791 252V251.523C178.726 249.597 179.806 248.436 179.806 247.383C179.806 246.654 179.419 246.132 178.6 246.132C178.06 246.132 177.592 246.474 177.223 246.906L176.746 246.438C177.286 245.853 177.862 245.475 178.699 245.475C179.878 245.475 180.616 246.213 180.616 247.356C180.616 248.562 179.509 249.759 177.988 251.361C178.33 251.325 178.735 251.298 179.068 251.298H180.931V252H176.791Z" fill="#484F51"/>
<path d="M275.487 296.126C273.822 296.126 272.67 294.794 272.67 292.679C272.67 290.564 273.822 289.286 275.487 289.286C277.143 289.286 278.295 290.573 278.295 292.679C278.295 294.794 277.143 296.126 275.487 296.126ZM275.487 295.388C276.666 295.388 277.449 294.326 277.449 292.679C277.449 291.032 276.666 290.015 275.487 290.015C274.299 290.015 273.525 291.032 273.525 292.679C273.525 294.326 274.299 295.388 275.487 295.388ZM279.224 296V295.523C281.159 293.597 282.239 292.436 282.239 291.383C282.239 290.654 281.852 290.132 281.033 290.132C280.493 290.132 280.025 290.474 279.656 290.906L279.179 290.438C279.719 289.853 280.295 289.475 281.132 289.475C282.311 289.475 283.049 290.213 283.049 291.356C283.049 292.562 281.942 293.759 280.421 295.361C280.763 295.325 281.168 295.298 281.501 295.298H283.364V296H279.224ZM284.234 293.804V293.174H286.538V293.804H284.234ZM293.195 292.58C293.195 290.825 293.906 289.403 294.986 288.305L295.526 288.584C294.482 289.655 293.843 290.978 293.843 292.58C293.843 294.191 294.482 295.514 295.526 296.585L294.986 296.864C293.906 295.766 293.195 294.344 293.195 292.58ZM303.131 289.988C303.077 290.06 302.96 290.258 302.915 290.375C302.555 291.266 301.871 292.526 301.124 293.354C300.116 294.479 298.829 295.55 297.407 296.198L296.831 295.595C298.289 295.037 299.612 293.957 300.539 292.931C301.151 292.238 301.808 291.167 302.042 290.42C301.718 290.42 298.838 290.42 298.532 290.42C298.208 290.42 297.722 290.456 297.623 290.465V289.655C297.74 289.673 298.253 289.709 298.532 289.709C298.883 289.709 301.664 289.709 302.006 289.709C302.294 289.709 302.537 289.682 302.681 289.637L303.131 289.988ZM301.241 292.886C302.213 293.696 303.41 294.956 304.022 295.703L303.401 296.252C302.753 295.397 301.7 294.245 300.728 293.39L301.241 292.886ZM305.849 292.103C306.128 292.13 306.596 292.157 307.109 292.157C307.766 292.157 311.375 292.157 312.041 292.157C312.491 292.157 312.806 292.121 313.013 292.103V292.985C312.824 292.976 312.446 292.949 312.05 292.949C311.366 292.949 307.775 292.949 307.109 292.949C306.614 292.949 306.137 292.967 305.849 292.985V292.103ZM320.89 289.727C320.89 290.06 321.16 290.321 321.484 290.321C321.808 290.321 322.078 290.06 322.078 289.727C322.078 289.403 321.808 289.133 321.484 289.133C321.16 289.133 320.89 289.403 320.89 289.727ZM320.476 289.727C320.476 289.169 320.926 288.719 321.484 288.719C322.042 288.719 322.492 289.169 322.492 289.727C322.492 290.285 322.042 290.735 321.484 290.735C320.926 290.735 320.476 290.285 320.476 289.727ZM315.805 293.3C316.201 292.364 316.57 290.996 316.696 289.961L317.497 290.123C317.434 290.321 317.371 290.591 317.326 290.78C317.209 291.338 316.894 292.67 316.516 293.597C316.183 294.416 315.688 295.343 315.184 296.072L314.419 295.748C314.986 294.992 315.499 294.047 315.805 293.3ZM320.242 292.958C319.882 292.031 319.324 290.78 318.937 290.105L319.666 289.862C320.017 290.519 320.593 291.761 320.98 292.706C321.34 293.597 321.817 294.974 322.06 295.793L321.259 296.045C321.034 295.136 320.611 293.912 320.242 292.958ZM323.761 292.103C324.04 292.13 324.508 292.157 325.021 292.157C325.678 292.157 329.287 292.157 329.953 292.157C330.403 292.157 330.718 292.121 330.925 292.103V292.985C330.736 292.976 330.358 292.949 329.962 292.949C329.278 292.949 325.687 292.949 325.021 292.949C324.526 292.949 324.049 292.967 323.761 292.985V292.103ZM337.783 288.962C337.747 289.205 337.729 289.466 337.738 289.709C337.747 290.708 337.81 293.849 337.819 295.532C337.828 296.009 337.54 296.261 337 296.261C336.541 296.261 336.01 296.234 335.56 296.207L335.497 295.46C335.929 295.532 336.433 295.568 336.775 295.568C337.027 295.568 337.108 295.451 337.108 295.208C337.108 293.921 337.072 290.708 337.027 289.709C337.009 289.367 336.991 289.151 336.955 288.962H337.783ZM332.95 290.537C333.211 290.564 333.508 290.582 333.778 290.582C334.255 290.582 338.71 290.582 339.169 290.582C339.403 290.582 339.754 290.555 339.934 290.528V291.293C339.718 291.284 339.412 291.266 339.187 291.266C338.791 291.266 334.201 291.266 333.796 291.266C333.49 291.266 333.238 291.284 332.95 291.302V290.537ZM332.626 294.74C334.525 293.804 336.19 292.229 336.856 291.131H337.216L337.225 291.734C336.541 292.805 334.867 294.407 333.139 295.325L332.626 294.74ZM344.371 289.637C344.326 289.412 344.272 289.214 344.209 289.025L345.01 288.89C345.028 289.052 345.064 289.313 345.1 289.511C345.154 289.907 346.144 294.848 346.27 295.442C346.333 295.694 346.405 296 346.495 296.261L345.667 296.414C345.622 296.108 345.595 295.829 345.532 295.568C345.442 295.001 344.479 290.105 344.371 289.637ZM341.833 290.942C342.058 290.924 342.301 290.906 342.589 290.879C343.399 290.789 346.504 290.294 347.359 290.123C347.62 290.078 347.854 290.024 348.007 289.979L348.151 290.735C348.016 290.744 347.746 290.789 347.503 290.825C346.576 290.969 343.507 291.455 342.715 291.59C342.472 291.635 342.256 291.68 341.995 291.743L341.833 290.942ZM341.806 293.534C342.022 293.525 342.364 293.489 342.598 293.453C343.561 293.327 346.909 292.778 347.989 292.58C348.331 292.517 348.592 292.454 348.781 292.4L348.934 293.156C348.745 293.174 348.457 293.228 348.124 293.282C346.927 293.462 343.678 293.993 342.769 294.155C342.418 294.218 342.166 294.272 341.968 294.326L341.806 293.534ZM352.552 289.088C353.083 289.385 354.118 290.078 354.514 290.366L354.091 290.978C353.659 290.645 352.678 289.997 352.156 289.7L352.552 289.088ZM351.202 295.523C352.192 295.352 353.308 294.992 354.226 294.479C355.72 293.624 356.908 292.445 357.628 291.176L358.069 291.923C357.286 293.129 356.044 294.29 354.604 295.136C353.695 295.667 352.453 296.081 351.625 296.252L351.202 295.523ZM351.202 291.113C351.733 291.401 352.786 292.049 353.173 292.328L352.759 292.958C352.318 292.634 351.346 292.013 350.797 291.725L351.202 291.113ZM364.756 289.529C364.981 289.853 365.368 290.456 365.575 290.888L365.062 291.122C364.837 290.645 364.549 290.15 364.252 289.745L364.756 289.529ZM365.836 289.079C366.079 289.394 366.475 289.988 366.682 290.411L366.178 290.663C365.944 290.186 365.647 289.709 365.35 289.313L365.836 289.079ZM361.597 295.325C361.597 294.83 361.597 290.852 361.597 290.096C361.597 289.835 361.57 289.439 361.525 289.16H362.407C362.38 289.43 362.344 289.826 362.344 290.096C362.344 291.5 362.353 294.902 362.353 295.325C362.353 295.613 362.371 296.099 362.407 296.396H361.534C361.579 296.108 361.597 295.667 361.597 295.325ZM362.182 291.518C363.379 291.86 365.188 292.553 366.187 293.048L365.872 293.804C364.846 293.255 363.163 292.616 362.182 292.31V291.518ZM370.588 292.58C370.588 294.344 369.877 295.766 368.797 296.864L368.257 296.585C369.301 295.514 369.94 294.191 369.94 292.58C369.94 290.978 369.301 289.655 368.257 288.584L368.797 288.305C369.877 289.403 370.588 290.825 370.588 292.58Z" fill="#484F51"/>
<path d="M268.294 376V369.403H269.131V372.166H272.209V369.403H273.037V376H272.209V372.895H269.131V376H268.294ZM274.338 376V375.523C276.273 373.597 277.353 372.436 277.353 371.383C277.353 370.654 276.966 370.132 276.147 370.132C275.607 370.132 275.139 370.474 274.77 370.906L274.293 370.438C274.833 369.853 275.409 369.475 276.246 369.475C277.425 369.475 278.163 370.213 278.163 371.356C278.163 372.562 277.056 373.759 275.535 375.361C275.877 375.325 276.282 375.298 276.615 375.298H278.478V376H274.338ZM282.273 376.126C280.608 376.126 279.456 374.794 279.456 372.679C279.456 370.564 280.608 369.286 282.273 369.286C283.929 369.286 285.081 370.573 285.081 372.679C285.081 374.794 283.929 376.126 282.273 376.126ZM282.273 375.388C283.452 375.388 284.235 374.326 284.235 372.679C284.235 371.032 283.452 370.015 282.273 370.015C281.085 370.015 280.311 371.032 280.311 372.679C280.311 374.326 281.085 375.388 282.273 375.388ZM286.01 376V375.523C287.945 373.597 289.025 372.436 289.025 371.383C289.025 370.654 288.638 370.132 287.819 370.132C287.279 370.132 286.811 370.474 286.442 370.906L285.965 370.438C286.505 369.853 287.081 369.475 287.918 369.475C289.097 369.475 289.835 370.213 289.835 371.356C289.835 372.562 288.728 373.759 287.207 375.361C287.549 375.325 287.954 375.298 288.287 375.298H290.15V376H286.01ZM296.861 372.58C296.861 370.825 297.572 369.403 298.652 368.305L299.192 368.584C298.148 369.655 297.509 370.978 297.509 372.58C297.509 374.191 298.148 375.514 299.192 376.585L298.652 376.864C297.572 375.766 296.861 374.344 296.861 372.58ZM301.811 371.995V375.181H301.163V372.625H300.02V371.995H301.811ZM301.811 374.911C302.234 375.577 303.026 375.883 304.097 375.919C305.096 375.964 307.175 375.937 308.264 375.865C308.183 376.018 308.075 376.333 308.048 376.531C307.031 376.576 305.105 376.594 304.097 376.549C302.909 376.504 302.09 376.189 301.532 375.478C301.136 375.865 300.722 376.252 300.272 376.648L299.921 375.991C300.317 375.703 300.803 375.298 301.226 374.911H301.811ZM300.101 369.043L300.614 368.674C301.172 369.079 301.802 369.7 302.081 370.141L301.523 370.564C301.271 370.114 300.65 369.484 300.101 369.043ZM302.684 371.545H307.553V372.085H303.287V375.451H302.684V371.545ZM304.862 370.024H306.752V370.501H305.375V371.77H304.862V370.024ZM303.386 368.755H307.094V371.725H306.482V369.286H303.989V371.725H303.386V368.755ZM304.349 372.661H306.383V374.569H304.349V374.101H305.861V373.147H304.349V372.661ZM307.175 371.545H307.796V374.785C307.796 375.091 307.742 375.262 307.508 375.352C307.292 375.451 306.941 375.451 306.41 375.451C306.383 375.289 306.302 375.055 306.221 374.902C306.599 374.911 306.941 374.911 307.04 374.911C307.139 374.902 307.175 374.875 307.175 374.785V371.545ZM304.043 372.661H304.565V374.929H304.043V372.661ZM314.114 373.084H316.319V373.606H314.114V373.084ZM312.728 370.096C313.727 370.06 315.239 369.997 316.697 369.925L316.688 370.474C315.284 370.555 313.817 370.645 312.782 370.699L312.728 370.096ZM314.438 372.22L315.05 372.364C314.618 373.399 313.844 374.281 313.016 374.848C312.917 374.731 312.674 374.515 312.539 374.407C313.349 373.912 314.069 373.129 314.438 372.22ZM316.166 373.084H316.283L316.391 373.057L316.796 373.219C316.175 375.118 314.663 376.189 312.98 376.711C312.908 376.558 312.764 376.315 312.638 376.189C314.195 375.775 315.644 374.758 316.166 373.192V373.084ZM314.204 373.561C314.735 374.821 315.887 375.802 317.399 376.18C317.255 376.306 317.075 376.558 316.985 376.72C315.41 376.261 314.249 375.181 313.646 373.705L314.204 373.561ZM313.871 370.519H314.474C314.375 371.59 314.06 372.283 312.989 372.688C312.935 372.544 312.764 372.319 312.638 372.22C313.556 371.914 313.799 371.365 313.871 370.519ZM315.212 370.492H315.797V371.662C315.797 371.833 315.824 371.851 316.004 371.851C316.076 371.851 316.463 371.851 316.562 371.851C316.724 371.851 316.769 371.779 316.787 371.176C316.895 371.257 317.138 371.347 317.3 371.383C317.246 372.184 317.084 372.373 316.652 372.373C316.526 372.373 316.04 372.373 315.932 372.373C315.347 372.373 315.212 372.22 315.212 371.662V370.492ZM314.24 368.422L314.897 368.629C314.582 369.259 314.186 370.006 313.862 370.474L313.349 370.285C313.664 369.799 314.042 368.98 314.24 368.422ZM315.545 369.331L316.031 369.061C316.526 369.52 317.093 370.168 317.345 370.618L316.832 370.915C316.589 370.474 316.04 369.799 315.545 369.331ZM309.173 370.537H312.638V376.567H312.098V371.122H309.695V376.693H309.173V370.537ZM309.407 374.065H312.413V374.605H309.407V374.065ZM309.407 375.514H312.413V376.054H309.407V375.514ZM309.083 368.845H312.683V369.43H309.083V368.845ZM310.136 369.025H310.622V370.996H310.136V369.025ZM311.153 369.025H311.648V370.996H311.153V369.025ZM310.253 370.951H310.64V371.797C310.64 372.328 310.505 373.021 309.947 373.516C309.884 373.435 309.731 373.309 309.641 373.264C310.163 372.814 310.253 372.256 310.253 371.797V370.951ZM311.135 370.951H311.522V372.535C311.522 372.643 311.531 372.652 311.639 372.652C311.684 372.652 311.9 372.652 311.963 372.652C312.071 372.652 312.089 372.652 312.107 372.634C312.188 372.706 312.332 372.742 312.458 372.778C312.413 372.967 312.287 373.057 312.044 373.057C311.972 373.057 311.666 373.057 311.594 373.057C311.243 373.057 311.135 372.967 311.135 372.535V370.951ZM321.98 368.665H322.664V375.343C322.664 375.847 322.754 375.955 323.258 375.955C323.501 375.955 324.725 375.955 325.031 375.955C325.526 375.955 325.598 375.622 325.661 374.308C325.832 374.434 326.111 374.56 326.309 374.605C326.201 376.081 326.003 376.594 325.067 376.594C324.833 376.594 323.42 376.594 323.213 376.594C322.268 376.594 321.98 376.324 321.98 375.334V368.665ZM325.355 370.159L325.85 370.735C324.941 371.482 323.618 372.211 322.43 372.832C322.385 372.679 322.25 372.445 322.151 372.301C323.303 371.698 324.59 370.861 325.355 370.159ZM320.414 368.584L321.071 368.8C320.396 370.384 319.316 371.923 318.2 372.922C318.128 372.76 317.921 372.409 317.786 372.247C318.83 371.374 319.82 370.006 320.414 368.584ZM319.388 370.933L320.045 370.276L320.054 370.285V376.711H319.388V370.933ZM327.092 370.753H329.801V371.428H327.092V370.753ZM330.764 368.467H331.466V375.775C331.466 376.252 331.34 376.468 331.043 376.585C330.737 376.711 330.215 376.729 329.378 376.729C329.351 376.531 329.216 376.198 329.108 375.991C329.756 376.018 330.332 376.009 330.521 376.009C330.692 376 330.764 375.946 330.764 375.775V368.467ZM329.567 370.753H329.711L329.828 370.726L330.287 370.897C329.828 373.273 328.739 374.956 327.416 375.856C327.299 375.694 327.029 375.424 326.867 375.316C328.154 374.506 329.189 372.967 329.567 370.906V370.753ZM331.43 369.934C332.051 372.355 333.338 374.542 335.354 375.424C335.183 375.559 334.949 375.829 334.832 376.036C332.78 375.019 331.556 372.724 330.89 370.06L331.43 369.934ZM334.364 369.907L334.985 370.348C334.247 371.167 333.221 372.157 332.438 372.76L331.961 372.382C332.726 371.761 333.77 370.708 334.364 369.907ZM339.746 374.263H340.421V376.711H339.746V374.263ZM339.314 371.509L339.935 371.806C339.431 372.256 338.828 372.76 338.342 373.084L337.874 372.814C338.351 372.472 338.963 371.914 339.314 371.509ZM341.159 371.977L341.762 372.31C340.835 373.066 339.557 373.939 338.567 374.47L338.117 374.164C339.107 373.615 340.385 372.679 341.159 371.977ZM336.992 372.805L337.433 372.418C338.108 372.742 338.99 373.246 339.44 373.615L338.963 374.038C338.54 373.678 337.685 373.147 336.992 372.805ZM341.474 373.381L341.951 373.012C342.725 373.444 343.67 374.092 344.147 374.587L343.643 374.983C343.202 374.506 342.266 373.822 341.474 373.381ZM341.312 375.19L341.807 374.821C342.572 375.163 343.544 375.712 344.039 376.126L343.517 376.531C343.049 376.126 342.086 375.55 341.312 375.19ZM336.182 374.083C337.883 374.074 340.664 374.029 343.247 373.975L343.211 374.497C340.682 374.56 337.973 374.623 336.236 374.65L336.182 374.083ZM338.225 374.83L338.837 375.064C338.225 375.649 337.298 376.216 336.524 376.576C336.407 376.45 336.155 376.216 336.002 376.117C336.803 375.802 337.676 375.325 338.225 374.83ZM339.746 368.431H340.421V371.635H339.746V368.431ZM336.632 369.106H343.67V369.619H336.632V369.106ZM337.127 370.195H343.139V370.717H337.127V370.195ZM336.155 371.302H344.075V371.842H336.155V371.302ZM347.342 372.58C347.342 374.344 346.631 375.766 345.551 376.864L345.011 376.585C346.055 375.514 346.694 374.191 346.694 372.58C346.694 370.978 346.055 369.655 345.011 368.584L345.551 368.305C346.631 369.403 347.342 370.825 347.342 372.58Z" fill="#484F51"/>
<path d="M467.79 376V369.403H468.627V372.166H471.705V369.403H472.533V376H471.705V372.895H468.627V376H467.79ZM473.834 376V375.523C475.769 373.597 476.849 372.436 476.849 371.383C476.849 370.654 476.462 370.132 475.643 370.132C475.103 370.132 474.635 370.474 474.266 370.906L473.789 370.438C474.329 369.853 474.905 369.475 475.742 369.475C476.921 369.475 477.659 370.213 477.659 371.356C477.659 372.562 476.552 373.759 475.031 375.361C475.373 375.325 475.778 375.298 476.111 375.298H477.974V376H473.834ZM481.769 376.126C480.104 376.126 478.952 374.794 478.952 372.679C478.952 370.564 480.104 369.286 481.769 369.286C483.425 369.286 484.577 370.573 484.577 372.679C484.577 374.794 483.425 376.126 481.769 376.126ZM481.769 375.388C482.948 375.388 483.731 374.326 483.731 372.679C483.731 371.032 482.948 370.015 481.769 370.015C480.581 370.015 479.807 371.032 479.807 372.679C479.807 374.326 480.581 375.388 481.769 375.388Z" fill="#484F51"/>
<path d="M374.003 252.126C372.338 252.126 371.186 250.794 371.186 248.679C371.186 246.564 372.338 245.286 374.003 245.286C375.659 245.286 376.811 246.573 376.811 248.679C376.811 250.794 375.659 252.126 374.003 252.126ZM374.003 251.388C375.182 251.388 375.965 250.326 375.965 248.679C375.965 247.032 375.182 246.015 374.003 246.015C372.815 246.015 372.041 247.032 372.041 248.679C372.041 250.326 372.815 251.388 374.003 251.388ZM377.74 252V251.523C379.675 249.597 380.755 248.436 380.755 247.383C380.755 246.654 380.368 246.132 379.549 246.132C379.009 246.132 378.541 246.474 378.172 246.906L377.695 246.438C378.235 245.853 378.811 245.475 379.648 245.475C380.827 245.475 381.565 246.213 381.565 247.356C381.565 248.562 380.458 249.759 378.937 251.361C379.279 251.325 379.684 251.298 380.017 251.298H381.88V252H377.74Z" fill="#484F51"/>
<path d="M407.29 252V245.403H408.127V248.166H411.205V245.403H412.033V252H411.205V248.895H408.127V252H407.29ZM413.334 252V251.523C415.269 249.597 416.349 248.436 416.349 247.383C416.349 246.654 415.962 246.132 415.143 246.132C414.603 246.132 414.135 246.474 413.766 246.906L413.289 246.438C413.829 245.853 414.405 245.475 415.242 245.475C416.421 245.475 417.159 246.213 417.159 247.356C417.159 248.562 416.052 249.759 414.531 251.361C414.873 251.325 415.278 251.298 415.611 251.298H417.474V252H413.334ZM421.269 252.126C419.604 252.126 418.452 250.794 418.452 248.679C418.452 246.564 419.604 245.286 421.269 245.286C422.925 245.286 424.077 246.573 424.077 248.679C424.077 250.794 422.925 252.126 421.269 252.126ZM421.269 251.388C422.448 251.388 423.231 250.326 423.231 248.679C423.231 247.032 422.448 246.015 421.269 246.015C420.081 246.015 419.307 247.032 419.307 248.679C419.307 250.326 420.081 251.388 421.269 251.388Z" fill="#484F51"/>
<path d="M502.533 252L504.765 245.403H505.701L507.933 252H507.06L505.899 248.31C505.665 247.572 505.458 246.852 505.242 246.087H505.206C504.99 246.852 504.783 247.572 504.54 248.31L503.379 252H502.533ZM503.703 249.984V249.327H506.745V249.984H503.703ZM509.679 252V246.105H507.69V245.403H512.514V246.105H510.525V252H509.679ZM513.698 252V245.403H515.579C517.055 245.403 518.054 245.898 518.054 247.347C518.054 248.733 517.064 249.381 515.615 249.381H514.535V252H513.698ZM514.535 248.706H515.516C516.668 248.706 517.226 248.283 517.226 247.347C517.226 246.384 516.641 246.087 515.471 246.087H514.535V248.706Z" fill="#484F51"/>
<path d="M64.63 252V245.403H65.467V248.166H68.545V245.403H69.373V252H68.545V248.895H65.467V252H64.63ZM72.4378 250.956V248.994H70.6108V248.382H72.4378V246.411H73.1038V248.382H74.9308V248.994H73.1038V250.956H72.4378Z" fill="#484F51"/>
<path d="M314.83 81.088C315.361 81.385 316.396 82.078 316.792 82.366L316.369 82.978C315.937 82.645 314.956 81.997 314.434 81.7L314.83 81.088ZM313.48 87.523C314.47 87.352 315.586 86.992 316.504 86.479C317.998 85.624 319.186 84.445 319.906 83.176L320.347 83.923C319.564 85.129 318.322 86.29 316.882 87.136C315.973 87.667 314.731 88.081 313.903 88.252L313.48 87.523ZM313.48 83.113C314.011 83.401 315.064 84.049 315.451 84.328L315.037 84.958C314.596 84.634 313.624 84.013 313.075 83.725L313.48 83.113ZM324.154 87.208C324.154 86.704 324.154 82.726 324.154 81.979C324.154 81.718 324.136 81.322 324.091 81.034H324.973C324.937 81.313 324.91 81.7 324.91 81.979C324.91 83.374 324.919 86.785 324.919 87.208C324.919 87.496 324.937 87.982 324.973 88.279H324.1C324.145 87.991 324.154 87.541 324.154 87.208ZM324.748 83.401C325.936 83.743 327.754 84.436 328.753 84.922L328.438 85.687C327.412 85.138 325.729 84.499 324.748 84.193V83.401ZM337.969 82.375C337.897 82.501 337.807 82.708 337.762 82.852C337.519 83.761 336.97 84.976 336.169 85.957C335.35 86.956 334.27 87.775 332.587 88.405L331.93 87.811C333.586 87.325 334.702 86.515 335.53 85.552C336.223 84.733 336.781 83.563 336.961 82.744H333.631L333.919 82.096C334.279 82.096 336.502 82.096 336.781 82.096C337.024 82.096 337.231 82.069 337.375 82.015L337.969 82.375ZM334.954 81.016C334.81 81.25 334.648 81.556 334.558 81.718C334.027 82.717 333.091 84.004 331.642 84.958L331.012 84.499C332.569 83.572 333.451 82.258 333.847 81.457C333.937 81.295 334.072 80.971 334.126 80.737L334.954 81.016ZM340.444 81.835C340.795 81.853 341.029 81.853 341.245 81.853C341.722 81.853 345.637 81.853 346.078 81.853C346.267 81.853 346.591 81.853 346.87 81.844C346.852 82.06 346.852 82.312 346.852 82.537C346.852 82.96 346.852 86.632 346.852 86.974C346.852 87.262 346.861 87.964 346.87 88.063H346.087C346.096 87.964 346.105 87.451 346.105 87.073C346.105 86.74 346.105 82.564 346.105 82.564H341.191C341.191 82.564 341.191 86.704 341.191 87.073C341.191 87.37 341.2 87.946 341.2 88.063H340.435C340.435 87.946 340.453 87.289 340.453 86.974C340.453 86.605 340.453 82.888 340.453 82.537C340.453 82.33 340.453 82.06 340.444 81.835ZM346.402 86.848V87.55H340.831V86.848H346.402ZM352.828 81.295C352.738 81.511 352.639 81.745 352.513 82.132C352.225 83.05 351.181 86.281 350.794 87.19L349.984 87.217C350.434 86.182 351.478 82.924 351.748 81.97C351.865 81.556 351.901 81.349 351.928 81.106L352.828 81.295ZM354.538 84.31C355.168 85.228 356.158 87.046 356.527 87.973L355.78 88.306C355.42 87.334 354.502 85.462 353.854 84.607L354.538 84.31ZM349.633 87.001C350.929 86.938 354.151 86.578 355.312 86.407L355.51 87.109C354.259 87.271 350.947 87.631 349.678 87.757C349.453 87.775 349.183 87.811 348.931 87.847L348.787 87.019C349.057 87.028 349.372 87.019 349.633 87.001ZM360.523 88.126C358.876 88.126 357.652 86.848 357.652 84.706C357.652 82.582 358.903 81.286 360.577 81.286C361.378 81.286 361.999 81.673 362.386 82.096L361.927 82.636C361.585 82.267 361.144 82.015 360.586 82.015C359.335 82.015 358.507 83.041 358.507 84.688C358.507 86.353 359.299 87.388 360.559 87.388C361.18 87.388 361.666 87.118 362.089 86.65L362.539 87.172C362.017 87.784 361.378 88.126 360.523 88.126Z" fill="#484F51"/>
<path d="M281 10H280.5V9.5H281V10ZM294.354 9.64645C294.549 9.84171 294.549 10.1583 294.354 10.3536L291.172 13.5355C290.976 13.7308 290.66 13.7308 290.464 13.5355C290.269 13.3403 290.269 13.0237 290.464 12.8284L293.293 10L290.464 7.17157C290.269 6.97631 290.269 6.65973 290.464 6.46447C290.66 6.2692 290.976 6.2692 291.172 6.46447L294.354 9.64645ZM281 9.5H294V10.5H281V9.5ZM281.5 10V105H280.5V10H281.5Z" fill="#484F51"/>
<path d="M202.418 342.993C202.69 343.038 202.948 342.854 202.993 342.581L203.724 338.141C203.769 337.868 203.584 337.611 203.312 337.566C203.039 337.521 202.782 337.706 202.737 337.978L202.087 341.925L198.14 341.275C197.868 341.23 197.611 341.415 197.566 341.687C197.521 341.96 197.705 342.217 197.978 342.262L202.418 342.993ZM69.6614 307.051C118.422 283.916 171.567 300.23 202.093 342.791L202.905 342.208C172.119 299.284 118.462 282.79 69.2327 306.147L69.6614 307.051ZM37.3956 332.805C42.5255 326.136 46.5445 321.626 51.2934 317.822C56.0434 314.017 61.545 310.902 69.6614 307.051L69.2327 306.147C61.0908 310.01 55.5079 313.165 50.6682 317.041C45.8275 320.919 41.7517 325.502 36.603 332.195L37.3956 332.805Z" fill="#484F51"/>
<path d="M29.0058 348.831C28.9124 348.571 28.626 348.436 28.3661 348.53L24.1315 350.052C23.8717 350.146 23.7368 350.432 23.8302 350.692C23.9236 350.952 24.21 351.087 24.4699 350.993L28.234 349.64L29.5873 353.404C29.6808 353.664 29.9672 353.799 30.227 353.705C30.4869 353.612 30.6218 353.325 30.5284 353.066L29.0058 348.831ZM56.6232 472.833C18.5093 446.644 7.79116 394.209 28.9876 349.213L28.083 348.787C6.71587 394.145 17.4693 447.143 56.0568 473.658L56.6232 472.833ZM94.0434 488.002C79.4147 486.733 69.3162 481.555 56.6232 472.833L56.0568 473.658C68.816 482.425 79.0828 487.708 93.957 488.998L94.0434 488.002Z" fill="#484F51"/>
<path d="M175.501 480.965C175.482 481.241 175.69 481.479 175.965 481.499L180.454 481.813C180.73 481.833 180.968 481.625 180.988 481.349C181.007 481.074 180.799 480.835 180.524 480.816L176.534 480.536L176.813 476.546C176.833 476.27 176.625 476.032 176.349 476.012C176.074 475.993 175.835 476.201 175.816 476.476L175.501 480.965ZM217.5 386C217.5 424.325 201.157 458.475 175.672 480.623L176.328 481.377C202.035 459.037 218.5 424.609 218.5 386L217.5 386Z" fill="#484F51"/>
<path d="M40.5 298.5L40.9994 298.523L40.5 298.5ZM33.1982 257.041C32.9447 256.931 32.6505 257.048 32.541 257.302L30.7569 261.433C30.6474 261.687 30.7642 261.981 31.0177 262.09C31.2712 262.2 31.5655 262.083 31.6749 261.829L33.2608 258.157L36.933 259.743C37.1865 259.853 37.4808 259.736 37.5903 259.482C37.6997 259.229 37.583 258.935 37.3295 258.825L33.1982 257.041ZM40.0006 298.477C39.6297 306.371 39.1311 311.457 38.0478 315.996C36.9656 320.531 35.2948 324.543 32.5489 330.284L33.4511 330.716C36.2052 324.957 37.9132 320.869 39.0205 316.229C40.1266 311.593 40.628 306.429 40.9994 298.523L40.0006 298.477ZM32.5352 257.684C37.8294 271.027 40.5512 286.756 40.0006 298.477L40.9994 298.523C41.5576 286.644 38.8046 270.773 33.4648 257.316L32.5352 257.684Z" fill="#484F51"/>
<path d="M101 271.5L100.8 271.042L100.8 271.042L101 271.5ZM147.254 253.569C147.492 253.71 147.571 254.016 147.431 254.254L145.145 258.13C145.004 258.368 144.698 258.447 144.46 258.307C144.222 258.167 144.143 257.86 144.283 257.622L146.315 254.177L142.87 252.145C142.632 252.004 142.553 251.698 142.693 251.46C142.833 251.222 143.14 251.143 143.378 251.283L147.254 253.569ZM101.2 271.958C93.244 275.439 60.8511 289.885 35.4274 331.759L34.5726 331.241C60.1489 289.115 92.756 274.561 100.8 271.042L101.2 271.958ZM147.125 254.484C131.672 258.472 114.338 266.21 101.2 271.958L100.8 271.042C113.912 265.305 131.328 257.528 146.875 253.516L147.125 254.484Z" fill="#484F51"/>
<path d="M96.839 393.375C96.767 393.501 96.677 393.708 96.632 393.852C96.389 394.761 95.84 395.976 95.039 396.957C94.22 397.956 93.14 398.775 91.457 399.405L90.8 398.811C92.456 398.325 93.572 397.515 94.4 396.552C95.093 395.733 95.651 394.563 95.831 393.744H92.501L92.789 393.096C93.149 393.096 95.372 393.096 95.651 393.096C95.894 393.096 96.101 393.069 96.245 393.015L96.839 393.375ZM93.824 392.016C93.68 392.25 93.518 392.556 93.428 392.718C92.897 393.717 91.961 395.004 90.512 395.958L89.882 395.499C91.439 394.572 92.321 393.258 92.717 392.457C92.807 392.295 92.942 391.971 92.996 391.737L93.824 392.016ZM99.305 392.988C99.539 393.015 99.872 393.033 100.061 393.033H105.002C105.281 393.033 105.56 393.015 105.776 392.988V393.771C105.551 393.753 105.263 393.735 105.002 393.735H100.061C99.881 393.735 99.53 393.753 99.305 393.771V392.988ZM102.086 398.271V393.438H102.851V398.271H102.086ZM98.756 397.83C99.017 397.866 99.296 397.884 99.548 397.884H105.497C105.767 397.884 106.01 397.848 106.235 397.83V398.64C106.001 398.613 105.668 398.613 105.497 398.613H99.548C99.305 398.613 99.026 398.622 98.756 398.64V397.83ZM109.043 392.412C109.673 392.835 110.834 393.771 111.329 394.266L110.771 394.842C110.312 394.374 109.196 393.402 108.521 392.961L109.043 392.412ZM108.269 398.442C109.835 398.208 111.005 397.659 111.86 397.128C113.255 396.255 114.344 394.923 114.866 393.807L115.298 394.581C114.686 395.697 113.642 396.921 112.283 397.776C111.374 398.343 110.24 398.901 108.737 399.18L108.269 398.442ZM121.508 396.084H123.713V396.606H121.508V396.084ZM120.122 393.096C121.121 393.06 122.633 392.997 124.091 392.925L124.082 393.474C122.678 393.555 121.211 393.645 120.176 393.699L120.122 393.096ZM121.832 395.22L122.444 395.364C122.012 396.399 121.238 397.281 120.41 397.848C120.311 397.731 120.068 397.515 119.933 397.407C120.743 396.912 121.463 396.129 121.832 395.22ZM123.56 396.084H123.677L123.785 396.057L124.19 396.219C123.569 398.118 122.057 399.189 120.374 399.711C120.302 399.558 120.158 399.315 120.032 399.189C121.589 398.775 123.038 397.758 123.56 396.192V396.084ZM121.598 396.561C122.129 397.821 123.281 398.802 124.793 399.18C124.649 399.306 124.469 399.558 124.379 399.72C122.804 399.261 121.643 398.181 121.04 396.705L121.598 396.561ZM121.265 393.519H121.868C121.769 394.59 121.454 395.283 120.383 395.688C120.329 395.544 120.158 395.319 120.032 395.22C120.95 394.914 121.193 394.365 121.265 393.519ZM122.606 393.492H123.191V394.662C123.191 394.833 123.218 394.851 123.398 394.851C123.47 394.851 123.857 394.851 123.956 394.851C124.118 394.851 124.163 394.779 124.181 394.176C124.289 394.257 124.532 394.347 124.694 394.383C124.64 395.184 124.478 395.373 124.046 395.373C123.92 395.373 123.434 395.373 123.326 395.373C122.741 395.373 122.606 395.22 122.606 394.662V393.492ZM121.634 391.422L122.291 391.629C121.976 392.259 121.58 393.006 121.256 393.474L120.743 393.285C121.058 392.799 121.436 391.98 121.634 391.422ZM122.939 392.331L123.425 392.061C123.92 392.52 124.487 393.168 124.739 393.618L124.226 393.915C123.983 393.474 123.434 392.799 122.939 392.331ZM116.567 393.537H120.032V399.567H119.492V394.122H117.089V399.693H116.567V393.537ZM116.801 397.065H119.807V397.605H116.801V397.065ZM116.801 398.514H119.807V399.054H116.801V398.514ZM116.477 391.845H120.077V392.43H116.477V391.845ZM117.53 392.025H118.016V393.996H117.53V392.025ZM118.547 392.025H119.042V393.996H118.547V392.025ZM117.647 393.951H118.034V394.797C118.034 395.328 117.899 396.021 117.341 396.516C117.278 396.435 117.125 396.309 117.035 396.264C117.557 395.814 117.647 395.256 117.647 394.797V393.951ZM118.529 393.951H118.916V395.535C118.916 395.643 118.925 395.652 119.033 395.652C119.078 395.652 119.294 395.652 119.357 395.652C119.465 395.652 119.483 395.652 119.501 395.634C119.582 395.706 119.726 395.742 119.852 395.778C119.807 395.967 119.681 396.057 119.438 396.057C119.366 396.057 119.06 396.057 118.988 396.057C118.637 396.057 118.529 395.967 118.529 395.535V393.951ZM128.366 394.5V396.57H130.553V394.5H128.366ZM127.727 393.897H131.228V397.164H127.727V393.897ZM125.738 391.809H133.262V399.711H132.542V392.493H126.431V399.711H125.738V391.809ZM126.125 398.595H132.956V399.234H126.125V398.595ZM138.77 398.784H141.74V399.378H138.77V398.784ZM139.211 392.367H141.587V392.952H139.211V392.367ZM138.509 396.462H142.046V399.675H141.398V397.047H139.13V399.702H138.509V396.462ZM141.344 392.367H141.461L141.587 392.34L142.019 392.52C141.326 394.734 139.679 396.21 137.969 396.939C137.888 396.786 137.708 396.552 137.573 396.426C139.166 395.814 140.759 394.365 141.344 392.484V392.367ZM139.364 391.44L140.012 391.593C139.607 392.817 138.941 393.96 138.194 394.707C138.086 394.59 137.825 394.374 137.663 394.275C138.401 393.6 139.022 392.547 139.364 391.44ZM139.184 392.736C139.706 394.023 140.912 395.571 142.757 396.273C142.613 396.399 142.424 396.66 142.334 396.831C140.48 396.03 139.292 394.401 138.743 393.105L139.184 392.736ZM134.801 395.436H135.368V398.703H134.801V395.436ZM135.404 392.412V393.996H137.096V392.412H135.404ZM134.801 391.818H137.726V394.59H134.801V391.818ZM136.07 394.293H136.682V398.406H136.07V394.293ZM134.333 398.631C135.224 398.451 136.574 398.136 137.87 397.83L137.933 398.433C136.7 398.739 135.404 399.054 134.459 399.288L134.333 398.631ZM136.286 395.895H137.807V396.498H136.286V395.895Z" fill="#484F51"/>
<path d="M207.839 362.375C207.767 362.501 207.677 362.708 207.632 362.852C207.389 363.761 206.84 364.976 206.039 365.957C205.22 366.956 204.14 367.775 202.457 368.405L201.8 367.811C203.456 367.325 204.572 366.515 205.4 365.552C206.093 364.733 206.651 363.563 206.831 362.744H203.501L203.789 362.096C204.149 362.096 206.372 362.096 206.651 362.096C206.894 362.096 207.101 362.069 207.245 362.015L207.839 362.375ZM204.824 361.016C204.68 361.25 204.518 361.556 204.428 361.718C203.897 362.717 202.961 364.004 201.512 364.958L200.882 364.499C202.439 363.572 203.321 362.258 203.717 361.457C203.807 361.295 203.942 360.971 203.996 360.737L204.824 361.016ZM210.305 361.988C210.539 362.015 210.872 362.033 211.061 362.033H216.002C216.281 362.033 216.56 362.015 216.776 361.988V362.771C216.551 362.753 216.263 362.735 216.002 362.735H211.061C210.881 362.735 210.53 362.753 210.305 362.771V361.988ZM213.086 367.271V362.438H213.851V367.271H213.086ZM209.756 366.83C210.017 366.866 210.296 366.884 210.548 366.884H216.497C216.767 366.884 217.01 366.848 217.235 366.83V367.64C217.001 367.613 216.668 367.613 216.497 367.613H210.548C210.305 367.613 210.026 367.622 209.756 367.64V366.83ZM220.043 361.412C220.673 361.835 221.834 362.771 222.329 363.266L221.771 363.842C221.312 363.374 220.196 362.402 219.521 361.961L220.043 361.412ZM219.269 367.442C220.835 367.208 222.005 366.659 222.86 366.128C224.255 365.255 225.344 363.923 225.866 362.807L226.298 363.581C225.686 364.697 224.642 365.921 223.283 366.776C222.374 367.343 221.24 367.901 219.737 368.18L219.269 367.442ZM232.508 365.084H234.713V365.606H232.508V365.084ZM231.122 362.096C232.121 362.06 233.633 361.997 235.091 361.925L235.082 362.474C233.678 362.555 232.211 362.645 231.176 362.699L231.122 362.096ZM232.832 364.22L233.444 364.364C233.012 365.399 232.238 366.281 231.41 366.848C231.311 366.731 231.068 366.515 230.933 366.407C231.743 365.912 232.463 365.129 232.832 364.22ZM234.56 365.084H234.677L234.785 365.057L235.19 365.219C234.569 367.118 233.057 368.189 231.374 368.711C231.302 368.558 231.158 368.315 231.032 368.189C232.589 367.775 234.038 366.758 234.56 365.192V365.084ZM232.598 365.561C233.129 366.821 234.281 367.802 235.793 368.18C235.649 368.306 235.469 368.558 235.379 368.72C233.804 368.261 232.643 367.181 232.04 365.705L232.598 365.561ZM232.265 362.519H232.868C232.769 363.59 232.454 364.283 231.383 364.688C231.329 364.544 231.158 364.319 231.032 364.22C231.95 363.914 232.193 363.365 232.265 362.519ZM233.606 362.492H234.191V363.662C234.191 363.833 234.218 363.851 234.398 363.851C234.47 363.851 234.857 363.851 234.956 363.851C235.118 363.851 235.163 363.779 235.181 363.176C235.289 363.257 235.532 363.347 235.694 363.383C235.64 364.184 235.478 364.373 235.046 364.373C234.92 364.373 234.434 364.373 234.326 364.373C233.741 364.373 233.606 364.22 233.606 363.662V362.492ZM232.634 360.422L233.291 360.629C232.976 361.259 232.58 362.006 232.256 362.474L231.743 362.285C232.058 361.799 232.436 360.98 232.634 360.422ZM233.939 361.331L234.425 361.061C234.92 361.52 235.487 362.168 235.739 362.618L235.226 362.915C234.983 362.474 234.434 361.799 233.939 361.331ZM227.567 362.537H231.032V368.567H230.492V363.122H228.089V368.693H227.567V362.537ZM227.801 366.065H230.807V366.605H227.801V366.065ZM227.801 367.514H230.807V368.054H227.801V367.514ZM227.477 360.845H231.077V361.43H227.477V360.845ZM228.53 361.025H229.016V362.996H228.53V361.025ZM229.547 361.025H230.042V362.996H229.547V361.025ZM228.647 362.951H229.034V363.797C229.034 364.328 228.899 365.021 228.341 365.516C228.278 365.435 228.125 365.309 228.035 365.264C228.557 364.814 228.647 364.256 228.647 363.797V362.951ZM229.529 362.951H229.916V364.535C229.916 364.643 229.925 364.652 230.033 364.652C230.078 364.652 230.294 364.652 230.357 364.652C230.465 364.652 230.483 364.652 230.501 364.634C230.582 364.706 230.726 364.742 230.852 364.778C230.807 364.967 230.681 365.057 230.438 365.057C230.366 365.057 230.06 365.057 229.988 365.057C229.637 365.057 229.529 364.967 229.529 364.535V362.951Z" fill="#484F51"/>
<path d="M105.774 489.751C107.331 489.337 108.699 488.698 109.698 488.077C110.643 487.483 111.543 486.709 112.164 485.953L112.767 486.52C111.993 487.321 111.048 488.077 109.995 488.734C109.005 489.346 107.574 490.003 106.125 490.453L105.774 489.751ZM109.554 488.446L110.328 488.212V492.325C110.328 492.658 110.346 493.108 110.391 493.279H109.5C109.527 493.108 109.554 492.658 109.554 492.325V488.446ZM116.376 492.676C117.87 492.073 118.878 491.101 119.553 490.093C120.246 489.067 120.525 487.996 120.678 487.159C120.723 486.925 120.75 486.592 120.75 486.43L121.641 486.547C121.569 486.79 121.497 487.096 121.47 487.258C121.254 488.329 120.894 489.463 120.237 490.471C119.526 491.56 118.518 492.568 117.042 493.252L116.376 492.676ZM115.818 486.538C116.223 487.123 117.015 488.509 117.33 489.094L116.619 489.499C116.232 488.689 115.485 487.411 115.116 486.898L115.818 486.538ZM130.839 487.375C130.767 487.501 130.677 487.708 130.632 487.852C130.389 488.761 129.84 489.976 129.039 490.957C128.22 491.956 127.14 492.775 125.457 493.405L124.8 492.811C126.456 492.325 127.572 491.515 128.4 490.552C129.093 489.733 129.651 488.563 129.831 487.744H126.501L126.789 487.096C127.149 487.096 129.372 487.096 129.651 487.096C129.894 487.096 130.101 487.069 130.245 487.015L130.839 487.375ZM127.824 486.016C127.68 486.25 127.518 486.556 127.428 486.718C126.897 487.717 125.961 489.004 124.512 489.958L123.882 489.499C125.439 488.572 126.321 487.258 126.717 486.457C126.807 486.295 126.942 485.971 126.996 485.737L127.824 486.016ZM133.305 486.988C133.539 487.015 133.872 487.033 134.061 487.033H139.002C139.281 487.033 139.56 487.015 139.776 486.988V487.771C139.551 487.753 139.263 487.735 139.002 487.735H134.061C133.881 487.735 133.53 487.753 133.305 487.771V486.988ZM136.086 492.271V487.438H136.851V492.271H136.086ZM132.756 491.83C133.017 491.866 133.296 491.884 133.548 491.884H139.497C139.767 491.884 140.01 491.848 140.235 491.83V492.64C140.001 492.613 139.668 492.613 139.497 492.613H133.548C133.305 492.613 133.026 492.622 132.756 492.64V491.83ZM143.043 486.412C143.673 486.835 144.834 487.771 145.329 488.266L144.771 488.842C144.312 488.374 143.196 487.402 142.521 486.961L143.043 486.412ZM142.269 492.442C143.835 492.208 145.005 491.659 145.86 491.128C147.255 490.255 148.344 488.923 148.866 487.807L149.298 488.581C148.686 489.697 147.642 490.921 146.283 491.776C145.374 492.343 144.24 492.901 142.737 493.18L142.269 492.442ZM155.508 490.084H157.713V490.606H155.508V490.084ZM154.122 487.096C155.121 487.06 156.633 486.997 158.091 486.925L158.082 487.474C156.678 487.555 155.211 487.645 154.176 487.699L154.122 487.096ZM155.832 489.22L156.444 489.364C156.012 490.399 155.238 491.281 154.41 491.848C154.311 491.731 154.068 491.515 153.933 491.407C154.743 490.912 155.463 490.129 155.832 489.22ZM157.56 490.084H157.677L157.785 490.057L158.19 490.219C157.569 492.118 156.057 493.189 154.374 493.711C154.302 493.558 154.158 493.315 154.032 493.189C155.589 492.775 157.038 491.758 157.56 490.192V490.084ZM155.598 490.561C156.129 491.821 157.281 492.802 158.793 493.18C158.649 493.306 158.469 493.558 158.379 493.72C156.804 493.261 155.643 492.181 155.04 490.705L155.598 490.561ZM155.265 487.519H155.868C155.769 488.59 155.454 489.283 154.383 489.688C154.329 489.544 154.158 489.319 154.032 489.22C154.95 488.914 155.193 488.365 155.265 487.519ZM156.606 487.492H157.191V488.662C157.191 488.833 157.218 488.851 157.398 488.851C157.47 488.851 157.857 488.851 157.956 488.851C158.118 488.851 158.163 488.779 158.181 488.176C158.289 488.257 158.532 488.347 158.694 488.383C158.64 489.184 158.478 489.373 158.046 489.373C157.92 489.373 157.434 489.373 157.326 489.373C156.741 489.373 156.606 489.22 156.606 488.662V487.492ZM155.634 485.422L156.291 485.629C155.976 486.259 155.58 487.006 155.256 487.474L154.743 487.285C155.058 486.799 155.436 485.98 155.634 485.422ZM156.939 486.331L157.425 486.061C157.92 486.52 158.487 487.168 158.739 487.618L158.226 487.915C157.983 487.474 157.434 486.799 156.939 486.331ZM150.567 487.537H154.032V493.567H153.492V488.122H151.089V493.693H150.567V487.537ZM150.801 491.065H153.807V491.605H150.801V491.065ZM150.801 492.514H153.807V493.054H150.801V492.514ZM150.477 485.845H154.077V486.43H150.477V485.845ZM151.53 486.025H152.016V487.996H151.53V486.025ZM152.547 486.025H153.042V487.996H152.547V486.025ZM151.647 487.951H152.034V488.797C152.034 489.328 151.899 490.021 151.341 490.516C151.278 490.435 151.125 490.309 151.035 490.264C151.557 489.814 151.647 489.256 151.647 488.797V487.951ZM152.529 487.951H152.916V489.535C152.916 489.643 152.925 489.652 153.033 489.652C153.078 489.652 153.294 489.652 153.357 489.652C153.465 489.652 153.483 489.652 153.501 489.634C153.582 489.706 153.726 489.742 153.852 489.778C153.807 489.967 153.681 490.057 153.438 490.057C153.366 490.057 153.06 490.057 152.988 490.057C152.637 490.057 152.529 489.967 152.529 489.535V487.951Z" fill="#484F51"/>
</svg>
