<svg width="61" height="77" viewBox="0 0 61 77" fill="none" xmlns="http://www.w3.org/2000/svg">
<circle cx="30.5" cy="30.2019" r="30" fill="#00C3D0"/>
<path d="M16.1755 34.3979C13.4175 34.3979 11.5415 32.3539 11.5415 28.9799C11.5415 25.6059 13.4175 23.6599 16.1755 23.6599C18.9195 23.6599 20.7955 25.6199 20.7955 28.9799C20.7955 32.3539 18.9195 34.3979 16.1755 34.3979ZM16.1755 32.6059C17.7155 32.6059 18.6955 31.1919 18.6955 28.9799C18.6955 26.7679 17.7155 25.4379 16.1755 25.4379C14.6215 25.4379 13.6555 26.7679 13.6555 28.9799C13.6555 31.1919 14.6215 32.6059 16.1755 32.6059ZM24.5969 34.3979C23.1549 34.3979 22.6649 33.4599 22.6649 32.0039V23.0439H24.7229V32.0879C24.7229 32.5779 24.9329 32.7319 25.1289 32.7319C25.1989 32.7319 25.2549 32.7319 25.3949 32.7039L25.6469 34.2299C25.4089 34.3139 25.0869 34.3979 24.5969 34.3979ZM29.8389 34.3979C27.8789 34.3979 26.6189 32.8719 26.6189 30.2959C26.6189 27.7339 28.2289 26.1799 29.9089 26.1799C30.7909 26.1799 31.3369 26.5019 31.9109 27.0199L31.8269 25.7879V23.0439H33.8849V34.2019H32.2049L32.0509 33.3899H32.0089C31.4349 33.9639 30.6509 34.3979 29.8389 34.3979ZM30.3569 32.7039C30.9169 32.7039 31.3789 32.4799 31.8269 31.9059V28.4619C31.3649 28.0279 30.8609 27.8599 30.3709 27.8599C29.4889 27.8599 28.7329 28.6999 28.7329 30.2679C28.7329 31.9059 29.3349 32.7039 30.3569 32.7039ZM39.5067 34.3979C37.3087 34.3979 35.6007 32.8859 35.6007 30.2959C35.6007 27.7479 37.3927 26.1799 39.2407 26.1799C41.4107 26.1799 42.5167 27.7479 42.5167 29.9179C42.5167 30.3099 42.4747 30.6739 42.4327 30.8699H37.5887C37.7707 32.1579 38.6107 32.8159 39.7727 32.8159C40.4027 32.8159 40.9627 32.6199 41.5367 32.2699L42.2227 33.5439C41.4527 34.0759 40.4727 34.3979 39.5067 34.3979ZM37.5607 29.4979H40.7667C40.7667 28.4339 40.2907 27.7619 39.2827 27.7619C38.4567 27.7619 37.7287 28.3499 37.5607 29.4979ZM44.2255 34.2019V26.3759H45.8915L46.0595 27.7619H46.1015C46.6615 26.7259 47.5155 26.1799 48.3275 26.1799C48.7475 26.1799 48.9995 26.2359 49.2375 26.3479L48.8875 28.1119C48.6075 28.0419 48.3975 27.9859 48.0615 27.9859C47.4595 27.9859 46.7175 28.4059 46.2835 29.5399V34.2019H44.2255Z" fill="white"/>
<path d="M28.7492 74.1198C29.2515 74.7778 30.0441 75.2019 30.9369 75.2019C32.4571 75.2019 33.687 73.9722 33.687 72.4519V61.84L34.5099 62.8313L34.5102 62.8316C34.7737 63.1487 35.0936 63.3918 35.4433 63.5582C34.4889 64.3018 33.8746 65.4619 33.8746 66.7644V67.2019C33.8746 68.4816 34.9076 69.5144 36.1872 69.5144C36.6218 69.5144 37.0279 69.3953 37.3748 69.1878V72.8894C37.3748 74.1691 38.4078 75.2019 39.6874 75.2019C40.967 75.2019 42 74.1691 42 72.8894V66.7644C42 64.8109 40.6181 63.1776 38.7794 62.7894C39.5754 61.7921 39.594 60.3393 38.7452 59.3173C38.745 59.3171 38.7449 59.3169 38.7447 59.3167L34.7154 54.4566C34.7152 54.4565 34.7151 54.4563 34.7149 54.4561C33.8352 53.393 32.6373 52.664 31.3182 52.3582C31.5119 52.3133 31.7021 52.2524 31.8866 52.176C32.3264 51.9938 32.7261 51.7268 33.0627 51.3902C33.3993 51.0536 33.6664 50.654 33.8486 50.2142C34.0307 49.7743 34.1245 49.303 34.1245 48.8269C34.1245 48.3509 34.0307 47.8795 33.8486 47.4397C33.6664 46.9998 33.3993 46.6002 33.0627 46.2636C32.7261 45.927 32.3264 45.66 31.8866 45.4778C31.4468 45.2957 30.9754 45.2019 30.4993 45.2019C30.0233 45.2019 29.5519 45.2957 29.1121 45.4778C28.6723 45.66 28.2726 45.927 27.936 46.2636C27.5994 46.6002 27.3323 46.9998 27.1501 47.4397C26.968 47.8795 26.8742 48.3509 26.8742 48.8269C26.8742 49.303 26.968 49.7743 27.1501 50.2142C27.3323 50.654 27.5994 51.0536 27.936 51.3902C28.2726 51.7268 28.6723 51.9938 29.1121 52.176C29.1289 52.1829 29.1457 52.1897 29.1625 52.1964H27.9398C25.7445 52.1964 23.7138 53.3494 22.5821 55.229L22.5817 55.2297L19.3938 60.5334C19.3937 60.5336 19.3935 60.5338 19.3934 60.534C18.6107 61.8335 19.0324 63.5247 20.3303 64.3068C21.4856 65.0031 22.9508 64.7472 23.8115 63.7698V72.4519C23.8115 73.9722 25.0413 75.2019 26.5616 75.2019C27.4544 75.2019 28.247 74.7778 28.7492 74.1198Z" fill="white" stroke="#00C3D0" stroke-width="2"/>
</svg>
