<svg width="61" height="68" viewBox="0 0 61 68" fill="none" xmlns="http://www.w3.org/2000/svg">
<circle cx="30.5" cy="30" r="30" fill="#00C3D0"/>
<path d="M7.34037 33.6721V24.7921H10.2564C12.2124 24.7921 13.7244 25.4761 13.7244 27.5881C13.7244 29.6161 12.2124 30.5161 10.3044 30.5161H9.11637V33.6721H7.34037ZM9.11637 29.1121H10.1844C11.4084 29.1121 11.9964 28.5961 11.9964 27.5881C11.9964 26.5441 11.3484 26.2081 10.1244 26.2081H9.11637V29.1121ZM17.2043 33.8401C15.7523 33.8401 15.1163 32.8441 15.1163 31.1521V26.9641H16.8803V30.9361C16.8803 31.9681 17.1683 32.3281 17.8283 32.3281C18.3803 32.3281 18.7403 32.0881 19.1963 31.4881V26.9641H20.9483V33.6721H19.5083L19.3763 32.7121H19.3403C18.7523 33.3961 18.1163 33.8401 17.2043 33.8401ZM26.2009 33.8401C25.6009 33.8401 24.9529 33.5281 24.4129 32.9641H24.3649L24.2209 33.6721H22.8409V24.1081H24.6049V26.5201L24.5449 27.5881C25.0849 27.1201 25.7449 26.7961 26.4169 26.7961C28.0609 26.7961 29.0569 28.1401 29.0569 30.2041C29.0569 32.5201 27.6769 33.8401 26.2009 33.8401ZM25.8169 32.3881C26.6209 32.3881 27.2449 31.6921 27.2449 30.2401C27.2449 28.9441 26.8489 28.2361 25.9129 28.2361C25.4689 28.2361 25.0489 28.4641 24.6049 28.9321V31.8961C25.0129 32.2681 25.4569 32.3881 25.8169 32.3881ZM33.4916 33.8401C31.6076 33.8401 30.1436 32.5441 30.1436 30.3241C30.1436 28.1401 31.6796 26.7961 33.2636 26.7961C35.1236 26.7961 36.0716 28.1401 36.0716 30.0001C36.0716 30.3361 36.0356 30.6481 35.9996 30.8161H31.8476C32.0036 31.9201 32.7236 32.4841 33.7196 32.4841C34.2596 32.4841 34.7396 32.3161 35.2316 32.0161L35.8196 33.1081C35.1596 33.5641 34.3196 33.8401 33.4916 33.8401ZM31.8236 29.6401H34.5716C34.5716 28.7281 34.1636 28.1521 33.2996 28.1521C32.5916 28.1521 31.9676 28.6561 31.8236 29.6401ZM37.5362 33.6721V26.9641H38.9642L39.1082 28.1521H39.1442C39.6242 27.2641 40.3562 26.7961 41.0522 26.7961C41.4122 26.7961 41.6282 26.8441 41.8322 26.9401L41.5322 28.4521C41.2922 28.3921 41.1122 28.3441 40.8242 28.3441C40.3082 28.3441 39.6722 28.7041 39.3002 29.6761V33.6721H37.5362ZM45.2225 33.8401C43.6265 33.8401 43.0145 32.8321 43.0145 31.3321V28.3441H42.0785V27.0361L43.1225 26.9641L43.3145 25.1401H44.7785V26.9641H46.4465V28.3441H44.7785V31.3321C44.7785 32.1001 45.1025 32.4601 45.6905 32.4601C45.9185 32.4601 46.1705 32.3761 46.3625 32.3041L46.6505 33.5881C46.2905 33.7081 45.8225 33.8401 45.2225 33.8401ZM48.4013 36.3721C48.0173 36.3721 47.7413 36.3241 47.4893 36.2401L47.8133 34.8841C47.9333 34.9201 48.1133 34.9801 48.2813 34.9801C48.9533 34.9801 49.3373 34.5481 49.5413 33.9481L49.6493 33.5521L47.0333 26.9641H48.8213L49.8773 30.0721C50.0813 30.6841 50.2493 31.3321 50.4533 31.9801H50.5133C50.6573 31.3441 50.8253 30.7081 50.9813 30.0721L51.9173 26.9641H53.6093L51.2213 33.8881C50.6333 35.4601 49.9133 36.3721 48.4013 36.3721Z" fill="white"/>
<path d="M19.5625 67H20.125H20.5625H21.125H27.375H28.375V66V59.1875H32.625V66V67H33.625H39.875H40.4375H40.875H41.4375H45.3438C46.3277 67 47.125 66.2027 47.125 65.2188V51.9375C47.125 50.5224 45.9776 49.375 44.5625 49.375H41.4375H40.875V47.771C40.875 46.9144 40.4468 46.1137 39.7337 45.6385L31.9214 40.4302L31.921 40.4299C31.5001 40.1496 31.0057 40 30.5 40C29.9943 40 29.4999 40.1496 29.079 40.4299L29.0786 40.4302L21.2661 45.6386C21.2661 45.6387 21.2661 45.6387 21.2661 45.6387C20.9151 45.8726 20.6274 46.1896 20.4283 46.5614C20.2293 46.9333 20.1251 47.3485 20.125 47.7703V47.7705V49.375H19.5625H16.4375C15.0224 49.375 13.875 50.5224 13.875 51.9375V65.2188C13.875 66.2027 14.6723 67 15.6562 67H19.5625ZM32.4531 48.5938H32.2812V47.6406C32.2812 47.5074 32.2625 47.3785 32.2275 47.2565C32.7639 47.6537 33.1588 48.231 33.3227 48.899C33.0845 48.708 32.7822 48.5938 32.4531 48.5938ZM28.7725 47.2565C28.7375 47.3785 28.7188 47.5074 28.7188 47.6406V50.7656C28.7188 51.5337 29.3413 52.1563 30.1094 52.1563H31.8722C31.4635 52.3756 30.9963 52.5 30.5 52.5C28.8951 52.5 27.5938 51.1987 27.5938 49.5938C27.5938 48.6358 28.0574 47.786 28.7725 47.2565Z" fill="white" stroke="#00C3D0" stroke-width="2"/>
</svg>
